<?xml version="1.0" encoding="utf-8"?>
<!-- Generator: Adobe Illustrator 27.5.0, SVG Export Plug-In . SVG Version: 6.00 Build 0)  -->
<svg version="1.1" xmlns="http://www.w3.org/2000/svg" xmlns:xlink="http://www.w3.org/1999/xlink" x="0px" y="0px"
	 viewBox="0 0 500 750" style="enable-background:new 0 0 500 750;" xml:space="preserve">
<g id="BACKGROUND">
	<rect x="-0.001" style="fill:#FFFFFF;" width="500" height="750"/>
</g>
<g id="OBJECTS">
	<rect style="fill-rule:evenodd;clip-rule:evenodd;fill:#73A866;" width="214.062" height="750"/>
	<g>
		<g>
			<g>
				<text transform="matrix(1 0 0 1 48.9543 198.9612)"><tspan x="0" y="0" style="fill:#FFFFFF;stroke:#FFFFFF;stroke-width:0.6352;stroke-linecap:round;stroke-linejoin:round;stroke-miterlimit:10; font-family:'AdventPro-Medium'; font-size:45.2134px; letter-spacing:3;">james</tspan><tspan x="-1.583" y="45.213" style="fill:#FFFFFF;stroke:#FFFFFF;stroke-width:0.6352;stroke-linecap:round;stroke-linejoin:round;stroke-miterlimit:10; font-family:'AdventPro-Medium'; font-size:45.2134px; letter-spacing:3;">smith</tspan></text>
			</g>
			<g>
				<text transform="matrix(1 0 0 1 46.6408 282.0442)"><tspan x="0" y="0" style="fill:#FFFFFF; font-family:'AdventPro-Medium'; font-size:16.3337px; letter-spacing:1;">environmental</tspan><tspan x="26.346" y="16.333" style="fill:#FFFFFF; font-family:'AdventPro-Medium'; font-size:16.3337px; letter-spacing:1;">engineer</tspan></text>
			</g>
		</g>
		<g>
			<g>
				
					<text transform="matrix(1 0 0 1 43.4475 610.9415)" style="fill:#FFFFFF;stroke:#FFFFFF;stroke-width:0.6352;stroke-linecap:round;stroke-linejoin:round;stroke-miterlimit:10; font-family:'AdventPro-Medium'; font-size:22.8665px; letter-spacing:1;">CONTACT</text>
			</g>
			<rect x="43.447" y="621.524" style="fill:none;" width="140.924" height="105.561"/>
			<text transform="matrix(1 0 0 1 43.4475 629.8243)"><tspan x="0" y="0" style="fill:#FFFFFF; font-family:'AdventPro-Medium'; font-size:11.857px;">california</tspan><tspan x="0" y="16.938" style="fill:#FFFFFF; font-family:'AdventPro-Medium'; font-size:11.857px;">012 3456 7890</tspan><tspan x="0" y="33.877" style="fill:#FFFFFF; font-family:'AdventPro-Medium'; font-size:11.857px;">061234 5678</tspan><tspan x="0" y="50.815" style="fill:#FFFFFF; font-family:'AdventPro-Medium'; font-size:11.857px;">jsmith@email.com</tspan><tspan x="0" y="67.754" style="fill:#FFFFFF; font-family:'AdventPro-Medium'; font-size:11.857px;">@jamesshith</tspan></text>
		</g>
	</g>
	<g>
		
			<ellipse transform="matrix(0.2796 -0.9601 0.9601 0.2796 -14.458 171.0416)" style="fill:#FFFFFF;" cx="106.748" cy="95.155" rx="50.088" ry="50.088"/>
		<g>
			<g>
				<path style="fill:#73A866;" d="M124.302,97.959c-0.034-3.347-0.834-6.77-2.813-9.469c-2.893-3.946-7.889-5.822-12.747-6.413
					c-4.857-0.59-9.781-0.105-14.666-0.381c-4.885-0.276-9.977-1.446-13.574-4.764c1.19,6.74,3.387,13.343,6.902,19.215
					c3.515,5.872,8.383,10.997,14.321,14.398c3.517,2.015,7.516,3.433,11.559,3.153c3.445-0.239,7.238-1.945,9.094-4.983
					C124.122,105.862,124.335,101.229,124.302,97.959z"/>
				<path style="fill:#73A866;" d="M118.88,114.051c-1.666,0.81-3.542,1.325-5.47,1.459c-3.949,0.274-8.185-0.867-12.587-3.389
					c-5.946-3.407-11.125-8.607-14.976-15.04c-3.418-5.709-5.817-12.382-7.132-19.832c-0.135-0.766,0.234-1.534,0.917-1.908
					c0.695-0.385,1.529-0.268,2.1,0.258c2.744,2.532,6.931,3.972,12.447,4.287c1.965,0.111,3.999,0.094,5.966,0.078
					c2.878-0.023,5.855-0.048,8.817,0.314c6.197,0.751,11.166,3.288,13.991,7.14c2.028,2.767,3.122,6.407,3.163,10.524l0,0
					c0.056,5.385-0.661,9.22-2.188,11.722C122.812,111.487,121.019,113.012,118.88,114.051z M83.205,80.949
					c1.31,5.278,3.238,10.062,5.755,14.268c3.533,5.9,8.259,10.656,13.666,13.754c3.77,2.159,7.313,3.143,10.533,2.918
					c3.27-0.228,6.28-1.844,7.672-4.118c1.146-1.877,1.705-5.172,1.657-9.793l0,0c-0.023-2.339-0.47-5.698-2.461-8.414
					c-3.002-4.097-8.496-5.32-11.502-5.685c-2.73-0.33-5.459-0.308-8.35-0.287c-2.025,0.017-4.117,0.035-6.2-0.084
					C89.74,83.268,86.137,82.41,83.205,80.949z"/>
			</g>
			<g>
				<path style="fill:#62707D;" d="M133.788,125.503c-0.026,0.013-0.052,0.025-0.079,0.036c-0.921,0.394-1.988-0.031-2.383-0.952
					c-3.368-7.845-8.835-14.598-15.809-19.525c-3.613-2.553-7.679-4.633-11.612-6.647c-2.526-1.292-5.138-2.629-7.648-4.097
					C87.98,89.484,82.749,84.08,80.266,77.797c-0.368-0.931,0.083-1.981,1.02-2.354c0.932-0.368,1.987,0.089,2.355,1.021
					c2.173,5.497,6.899,10.312,14.447,14.721c2.423,1.416,4.989,2.729,7.471,4c4.046,2.071,8.229,4.212,12.053,6.913
					c7.521,5.315,13.417,12.596,17.05,21.057C135.044,124.049,134.655,125.082,133.788,125.503z"/>
			</g>
			<g>
				<path style="fill:#62707D;" d="M104.79,98.709c-0.446,0.217-0.974,0.247-1.456,0.057c-4.221-1.653-9.339-1.025-13.03,1.608
					c-0.826,0.581-1.95,0.39-2.531-0.427c-0.58-0.815-0.389-1.948,0.427-2.53c3.563-2.535,8.016-3.604,12.307-3.077
					c-1.812-4.011-2.842-8.357-3.014-12.77c-0.037-0.999,0.744-1.839,1.743-1.883c1.002-0.038,1.845,0.742,1.884,1.744
					c0.201,5.182,1.732,10.268,4.427,14.703c0.404,0.666,0.339,1.514-0.162,2.11C105.217,98.444,105.014,98.6,104.79,98.709z"/>
			</g>
			<g>
				<path style="fill:#62707D;" d="M118.076,105.051c-0.229,0.111-0.483,0.176-0.746,0.181c-5.281,0.139-10.457,2.644-13.84,6.706
					c-0.644,0.772-1.784,0.875-2.555,0.233c-0.77-0.64-0.875-1.784-0.233-2.554c3.485-4.19,8.565-6.991,13.951-7.788
					c-2.18-5.974-2.268-12.651-0.187-18.68c0.325-0.95,1.358-1.45,2.306-1.125c0.947,0.328,1.451,1.36,1.124,2.307
					c-2.052,5.95-1.678,12.622,1.027,18.308c0.264,0.555,0.23,1.206-0.092,1.729C118.646,104.667,118.382,104.902,118.076,105.051z"
					/>
			</g>
		</g>
	</g>
	<g>
		<g>
			<g>
				<path style="fill:#62707D;" d="M38.95,520.262c-0.238,1.419-0.841,2.746-1.354,4.09c-0.513,1.344-0.944,2.767-0.814,4.2
					c0.13,1.433,0.936,2.884,2.276,3.408c1.412,0.552,3.069-0.058,4.156-1.114c1.087-1.056,1.721-2.484,2.3-3.885
					c0.58-1.401,1.15-2.844,2.15-3.983"/>
				<path style="fill:#62707D;" d="M38.753,533.465c-0.083-0.027-0.166-0.057-0.247-0.089c-1.771-0.692-3.042-2.531-3.237-4.686
					c-0.161-1.781,0.368-3.466,0.908-4.88l0.313-0.802c0.409-1.036,0.796-2.014,0.962-2.997c0.139-0.828,0.923-1.386,1.751-1.247
					c0.821,0.136,1.387,0.923,1.247,1.751c-0.219,1.299-0.683,2.474-1.132,3.611l-0.3,0.769c-0.416,1.089-0.826,2.358-0.72,3.522
					c0.089,0.986,0.63,1.861,1.315,2.128c0.731,0.283,1.773-0.039,2.544-0.789c0.861-0.836,1.416-2.074,1.955-3.376l0.078-0.188
					c0.596-1.445,1.212-2.939,2.334-4.216c0.554-0.632,1.516-0.697,2.145-0.14c0.631,0.554,0.694,1.515,0.14,2.145
					c-0.788,0.898-1.283,2.099-1.808,3.37l-0.078,0.191c-0.666,1.609-1.369,3.155-2.647,4.395
					C42.699,533.466,40.561,534.05,38.753,533.465z"/>
			</g>
			<g>
				<path style="fill:#62707D;" d="M69.356,530.106c-0.238,1.419-0.841,2.746-1.354,4.09c-0.513,1.344-0.944,2.767-0.814,4.2
					c0.13,1.433,0.936,2.884,2.276,3.408c1.412,0.552,3.069-0.058,4.156-1.114c1.088-1.056,1.721-2.484,2.3-3.885
					c0.579-1.401,1.149-2.844,2.15-3.983"/>
				<path style="fill:#62707D;" d="M69.159,543.309c-0.083-0.027-0.166-0.057-0.247-0.089c-1.771-0.692-3.042-2.531-3.237-4.686
					c-0.161-1.781,0.368-3.466,0.908-4.88l0.315-0.806c0.409-1.034,0.795-2.01,0.96-2.993c0.139-0.828,0.923-1.387,1.751-1.248
					c0.831,0.14,1.387,0.924,1.248,1.751c-0.218,1.299-0.682,2.474-1.131,3.609l-0.302,0.771c-0.416,1.089-0.826,2.358-0.72,3.522
					c0.089,0.986,0.63,1.861,1.315,2.128c0.737,0.285,1.774-0.039,2.544-0.788c0.863-0.839,1.417-2.076,1.954-3.376l0.078-0.189
					c0.596-1.445,1.212-2.939,2.334-4.216c0.554-0.632,1.514-0.697,2.145-0.14c0.631,0.554,0.694,1.515,0.14,2.145
					c-0.788,0.898-1.283,2.099-1.808,3.37l-0.078,0.191c-0.638,1.543-1.368,3.153-2.647,4.395
					C73.105,543.31,70.967,543.894,69.159,543.309z"/>
			</g>
			<g>
				<polygon style="fill:#D5E5D0;" points="71.957,493.416 57.633,490.239 44.786,500.755 84.895,513.633 84.641,498.839 				"/>
				<path style="fill:#D5E5D0;" d="M44.317,502.202c-0.528-0.171-0.922-0.617-1.026-1.163c-0.104-0.547,0.1-1.107,0.531-1.46
					l12.848-10.516c0.361-0.295,0.837-0.409,1.292-0.308l14.324,3.177c0.092,0.021,0.181,0.05,0.269,0.086l12.684,5.422
					c0.551,0.236,0.912,0.773,0.922,1.372l0.254,14.795c0.009,0.491-0.22,0.954-0.613,1.246c-0.394,0.292-0.905,0.377-1.371,0.227
					l-40.109-12.878C44.319,502.202,44.319,502.202,44.317,502.202z M58.025,491.884l-10.114,8.278l35.427,11.375l-0.2-11.688
					L71.49,494.87L58.025,491.884z"/>
			</g>
			<g>
				<path style="fill:#677C65;" d="M53.228,487.074c0.784-0.839,3.087-1.992,4.173-2.366c1.399-0.483,5.951,0.762,7.364,1.203
					c8.078,2.524,13.069,3.454,20.644,7.23c4.743,2.364,4.563,5.577,4.608,6.524c0.236,4.97-0.602,9.994-0.366,14.964
					c-1.241-0.52-3.515-0.476-4.756-0.996c-0.133-3.527,0.765-7.618,0.632-11.144c-0.048-1.272-0.125-2.63-0.885-3.65
					c-0.662-0.889-1.728-1.364-2.752-1.789c-3.257-1.351-6.572-2.563-9.932-3.634c-3.555-1.133-7.161-2.107-10.804-2.917
					c-1.157-0.257-2.358-0.499-3.52-0.259c-1.834,0.378-3.207,1.863-4.413,3.294c-1.569,1.863-3.093,3.785-4.946,5.367
					c-0.702,0.599-2.437,1.409-3.89,1.05c-3.134-0.776-4.431,0.219-2.473-1.956C44.629,494.975,50.457,490.043,53.228,487.074z"/>
				<path style="fill:#677C65;" d="M84.703,515.182c-0.136-0.044-0.269-0.093-0.397-0.146c-0.546-0.229-0.909-0.754-0.931-1.345
					c-0.071-1.868,0.129-3.857,0.322-5.782c0.191-1.905,0.371-3.705,0.309-5.363c-0.044-1.161-0.118-2.172-0.585-2.8
					c-0.413-0.556-1.202-0.914-2.115-1.292c-3.207-1.329-6.514-2.538-9.811-3.589c-3.501-1.116-7.092-2.085-10.673-2.882
					c-1.084-0.242-2.048-0.427-2.882-0.255c-1.353,0.279-2.5,1.529-3.558,2.785l-0.625,0.746c-1.374,1.645-2.794,3.346-4.498,4.798
					c-0.972,0.831-3.171,1.882-5.242,1.369c-0.885-0.219-1.621-0.28-2.158-0.323c-0.829-0.065-1.861-0.151-2.276-1.198
					c-0.44-1.109,0.355-1.992,1.198-2.928c1.48-1.645,3.825-3.811,6.092-5.907c1.953-1.805,3.973-3.672,5.243-5.033
					c0,0,0.001,0,0.001,0c1.073-1.148,3.69-2.387,4.788-2.766c1.984-0.685,6.864,0.737,8.312,1.189
					c2.008,0.627,3.822,1.156,5.533,1.653c5.116,1.491,9.532,2.775,15.336,5.667c5.293,2.638,5.406,6.418,5.443,7.661l0.005,0.152
					c0.122,2.567-0.034,5.15-0.184,7.647c-0.145,2.416-0.296,4.914-0.182,7.317c0.025,0.521-0.219,1.018-0.646,1.317
					c-0.427,0.299-0.965,0.362-1.459,0.157c-0.438-0.183-1.227-0.29-1.993-0.393C86.261,515.528,85.427,515.416,84.703,515.182z
					 M72.991,492.151c3.194,1.034,6.38,2.208,9.48,3.495c0.972,0.403,2.442,1.011,3.389,2.285c1.069,1.436,1.136,3.207,1.185,4.501
					c0.071,1.868-0.129,3.857-0.322,5.782c-0.149,1.487-0.292,2.911-0.317,4.253c0.343,0.06,0.719,0.111,1.072,0.159
					c0.203,0.027,0.407,0.055,0.61,0.084c0.002-1.903,0.116-3.801,0.228-5.651c0.146-2.417,0.297-4.917,0.182-7.321l-0.007-0.206
					c-0.029-0.958-0.096-3.203-3.76-5.03c-5.559-2.771-9.651-3.959-14.828-5.469c-1.729-0.503-3.563-1.036-5.59-1.67
					c-2.659-0.83-5.721-1.409-6.423-1.214c-1.052,0.363-3.042,1.422-3.55,1.965c-1.347,1.443-3.316,3.263-5.402,5.19
					c-1.877,1.735-3.808,3.519-5.197,4.962c0.313,0.053,0.651,0.121,1.01,0.21c0.857,0.212,2.107-0.363,2.537-0.73
					c1.508-1.287,2.785-2.816,4.138-4.435l0.632-0.756c1.341-1.591,2.964-3.328,5.269-3.803c1.422-0.294,2.778-0.043,4.157,0.264
					c3.668,0.816,7.348,1.809,10.935,2.953C72.609,492.028,72.8,492.089,72.991,492.151z"/>
			</g>
			<g>
				<path style="fill:#677C65;" d="M36.208,502.189c-2.27,2.225-3.302,5.406-4.003,8.507c-0.409,1.808-0.666,3.91,0.524,5.33
					c0.75,0.895,1.916,1.304,3.024,1.674c15.289,5.106,30.634,10.042,46.032,14.809c1.422,0.44,2.979,0.876,4.362,0.327
					c1.418-0.562,2.26-2.005,2.914-3.383c1.132-2.382,2.031-4.875,2.681-7.431c0.363-1.427,0.632-3.006-0.035-4.319
					c-0.784-1.543-2.588-2.219-4.232-2.762c-7.208-2.382-14.416-4.764-21.624-7.146c-6.974-2.305-14.294-4.204-21.065-7.04
					C41.758,499.488,38.658,499.788,36.208,502.189z"/>
				<path style="fill:#677C65;" d="M54.343,525.414c-6.387-2.068-12.754-4.161-19.072-6.271c-1.122-0.375-2.658-0.889-3.707-2.139
					c-1.637-1.953-1.31-4.575-0.842-6.643c0.666-2.944,1.771-6.657,4.423-9.257l-0.001,0c2.74-2.686,6.466-3.326,10.229-1.75
					c4.563,1.909,9.476,3.419,14.229,4.881c2.257,0.694,4.512,1.386,6.726,2.118l21.624,7.146c1.494,0.494,3.993,1.319,5.11,3.516
					c0.894,1.758,0.579,3.707,0.153,5.383c-0.673,2.647-1.609,5.241-2.78,7.708c-0.772,1.624-1.818,3.387-3.728,4.144
					c-1.948,0.772-4.009,0.134-5.372-0.288C72.357,531.182,63.331,528.323,54.343,525.414z M43.504,501.9
					c-1.794-0.581-4.14-0.675-6.23,1.375l-0.001,0c-2.073,2.032-2.975,5.061-3.584,7.756c-0.314,1.383-0.573,3.09,0.206,4.018
					c0.461,0.549,1.296,0.86,2.341,1.209c15.185,5.072,30.661,10.049,45.999,14.798c1.265,0.392,2.474,0.714,3.353,0.366
					c0.929-0.368,1.583-1.532,2.1-2.621c1.088-2.289,1.956-4.696,2.58-7.153c0.287-1.127,0.521-2.395,0.084-3.254
					c-0.507-0.998-1.935-1.539-3.353-2.008l-21.624-7.146c-2.2-0.731-4.429-1.411-6.666-2.099c-4.823-1.483-9.811-3.015-14.51-4.983
					C43.978,502.065,43.746,501.978,43.504,501.9z M36.208,502.189l0.014,0.005L36.208,502.189z"/>
			</g>
			<g>
				<path style="fill:#F1F6F0;" d="M41.76,505.626c-1.38,0.341-2.496,1.425-3.129,2.698c-0.495,0.994-0.724,2.186-0.312,3.218
					c0.38,0.951,1.273,1.644,2.258,1.921c1.59,0.446,3.427-0.193,4.396-1.53C46.806,509.403,45.471,504.71,41.76,505.626z"/>
				<path style="fill:#F1F6F0;" d="M39.963,514.865c-1.41-0.457-2.544-1.475-3.057-2.759c-0.533-1.335-0.404-2.918,0.364-4.459
					c0.893-1.795,2.396-3.07,4.125-3.496c2.001-0.498,3.853,0.184,4.953,1.815c1.326,1.967,1.263,4.916-0.145,6.859
					c-1.346,1.857-3.828,2.721-6.037,2.102C40.098,514.907,40.03,514.887,39.963,514.865z M43.113,507.094
					c-0.279-0.09-0.606-0.086-0.989,0.008l-0.001,0c-0.847,0.209-1.645,0.92-2.131,1.9c-0.366,0.734-0.463,1.472-0.262,1.976
					c0.183,0.457,0.661,0.848,1.257,1.021c0.976,0.274,2.16-0.139,2.754-0.958c0.663-0.915,0.702-2.46,0.085-3.375
					C43.631,507.375,43.397,507.186,43.113,507.094z M41.759,505.626l0.014,0.005L41.759,505.626z"/>
			</g>
			<g>
				<path style="fill:#F1F6F0;" d="M74.248,524.894c0.513,0.779,1.379,1.29,2.293,1.474c0.914,0.184,1.872,0.061,2.755-0.238
					c3.316-1.125,5.537-6.979,0.929-7.94C76.965,517.509,71.977,521.447,74.248,524.894z"/>
				<path style="fill:#F1F6F0;" d="M75.633,527.699c-1.105-0.358-2.051-1.054-2.654-1.968l0,0c-1.158-1.758-1.098-3.833,0.166-5.694
					c1.628-2.395,4.875-3.86,7.391-3.335c2.268,0.474,3.691,2.017,3.82,4.131c0.167,2.754-1.926,5.84-4.571,6.737
					c-1.213,0.412-2.439,0.512-3.544,0.289C76.034,527.816,75.831,527.763,75.633,527.699z M75.518,524.057
					c0.264,0.4,0.761,0.71,1.323,0.819c0.581,0.118,1.261,0.052,1.968-0.187c1.353-0.459,2.597-2.278,2.512-3.673
					c-0.03-0.493-0.22-1.09-1.405-1.339c-1.306-0.272-3.335,0.713-4.256,2.068C74.815,522.99,75.344,523.793,75.518,524.057
					L75.518,524.057z"/>
			</g>
			<g>
				<path style="fill:#30392F;" d="M66.366,516.669c-0.008-0.003-0.017-0.005-0.026-0.008l-12.729-4.365
					c-0.794-0.273-1.217-1.137-0.945-1.931c0.273-0.795,1.116-1.216,1.931-0.946l12.731,4.366c0.794,0.272,1.217,1.137,0.945,1.932
					C68.002,516.501,67.153,516.924,66.366,516.669z"/>
			</g>
			<g>
				<path style="fill:#30392F;" d="M51.801,517.544c-0.788-0.255-1.228-1.096-0.985-1.891c0.246-0.803,1.095-1.255,1.899-1.01
					l12.5,3.821c0.789,0.242,1.255,1.095,1.01,1.899c-0.246,0.803-1.096,1.255-1.899,1.01l-12.5-3.821
					C51.817,517.55,51.809,517.547,51.801,517.544z"/>
			</g>
		</g>
		<g>
			<path style="fill:#677C65;" d="M167.503,383.591l10.318-3.829c0,0,4.218-2.336,4.218-4.997c0-2.66-2.466-3.829-6.554-3.309
				c-4.088,0.519-10.772,2.531-10.772,2.531s-2.79-5.775-11.832-7.549c-3.502-0.687-10.512,0.389-10.512,0.389l12.156,11.378
				c0,0-14.341,4.672-15.833,4.672c-1.493,0-7.203-1.882-7.203-1.882l-4.867,1.428l10.772,8.241l19.013-3.757l-3.18,13.555
				c0,0,8.241-2.077,10.837-7.398C166.659,387.744,167.503,383.591,167.503,383.591z"/>
			<path style="fill:#677C65;" d="M153.227,401.479c-0.263,0-0.52-0.103-0.713-0.292c-0.253-0.249-0.358-0.612-0.277-0.957
				l2.82-12.02l-17.466,3.451c-0.283,0.057-0.583-0.013-0.814-0.19l-10.772-8.241c-0.305-0.233-0.452-0.617-0.382-0.993
				c0.071-0.377,0.347-0.682,0.714-0.79l4.867-1.428c0.198-0.057,0.408-0.055,0.604,0.01c2.148,0.708,5.917,1.831,6.885,1.831
				c0.901-0.035,7.535-2.046,13.88-4.091l-10.898-10.2c-0.284-0.266-0.391-0.671-0.276-1.042s0.432-0.645,0.817-0.704
				c0.294-0.045,7.227-1.095,10.861-0.382c7.555,1.482,10.982,5.627,12.109,7.348c1.889-0.546,6.825-1.916,10.171-2.341
				c2.856-0.36,5.057,0.055,6.366,1.209c0.872,0.768,1.332,1.843,1.332,3.109c0,3.168-4.256,5.617-4.742,5.886
				c-0.045,0.024-0.091,0.046-0.139,0.064l-9.803,3.638c-0.323,1.327-1.295,4.855-3.394,9.158c-2.77,5.68-11.146,7.848-11.502,7.938
				C153.393,401.469,153.309,401.479,153.227,401.479z M156.407,385.891c0.273,0,0.538,0.11,0.732,0.311
				c0.239,0.248,0.337,0.602,0.258,0.938l-2.771,11.81c2.424-0.877,6.844-2.887,8.524-6.33c2.501-5.127,3.348-9.191,3.357-9.232
				c0.07-0.344,0.313-0.628,0.642-0.75l10.242-3.8c1.011-0.579,3.631-2.433,3.631-4.072c0-0.685-0.21-1.202-0.643-1.584
				c-0.847-0.746-2.542-1.002-4.766-0.717c-3.956,0.502-10.541,2.476-10.607,2.495c-0.479,0.143-0.991-0.081-1.208-0.531
				c-0.105-0.214-2.732-5.349-11.113-6.993c-2.135-0.418-5.75-0.131-8.045,0.125l10.579,9.902c0.262,0.246,0.375,0.612,0.298,0.963
				c-0.078,0.351-0.336,0.635-0.678,0.746c-3.4,1.108-14.614,4.722-16.148,4.722c-1.451,0-5.781-1.367-7.22-1.834l-2.64,0.774
				l8.815,6.744l18.563-3.668C156.276,385.897,156.341,385.891,156.407,385.891z"/>
		</g>
		<g>
			<g>
				<path style="fill:#A1C49D;" d="M76.685,403.765c2.979-11.167,5.959-22.334,8.938-33.501c0.724-2.713,1.454-5.486,1.265-8.287
					c-0.22-3.258-1.8-6.48-4.481-8.345c-2.681-1.865-6.464-2.179-9.244-0.466c-1.781,1.097-3.026,2.874-4.087,4.677
					c-6.774,11.507-7.847,25.366-11.552,38.194"/>
				<path style="fill:#A1C49D;" d="M76.685,405.285c0.671,0,1.286-0.448,1.467-1.129l8.94-33.501
					c0.713-2.674,1.52-5.703,1.314-8.782c-0.263-3.89-2.181-7.437-5.13-9.491c-3.298-2.293-7.682-2.5-10.911-0.512
					c-2.131,1.314-3.52,3.366-4.6,5.2c-4.763,8.09-6.788,17.355-8.748,26.316c-0.885,4.047-1.801,8.233-2.955,12.227
					c-0.233,0.806,0.232,1.65,1.039,1.883c0.808,0.233,1.65-0.232,1.883-1.039c1.18-4.089,2.107-8.325,3.004-12.422
					c1.908-8.726,3.881-17.75,8.398-25.422c0.891-1.513,2.01-3.189,3.574-4.153c2.183-1.341,5.296-1.17,7.58,0.42
					c2.199,1.529,3.632,4.221,3.832,7.198c0.174,2.578-0.533,5.229-1.216,7.793l-8.94,33.501c-0.217,0.811,0.266,1.645,1.076,1.86
					C76.422,405.269,76.555,405.285,76.685,405.285z"/>
			</g>
			<g>
				<path style="fill:#BFD8B6;" d="M82.771,392.905c1.151,1.207,2.32,2.493,2.795,4.093c0.475,1.599,0.035,3.598-1.427,4.402
					c-1.399,0.769-3.145,0.217-4.565-0.512c-2.69-1.381-5.038-3.334-7.336-5.299c-4.54-3.882-8.987-7.875-13.252-12.057
					c-1.475-1.446-2.962-2.963-3.778-4.861c-0.885-2.057-0.863-4.97,1.105-6.415c2.176-1.599,3.942-0.538,5.51,1.077
					c4.222,4.349,9.156,8.094,13.571,12.259C77.911,387.968,80.381,390.398,82.771,392.905z"/>
				<path style="fill:#BFD8B6;" d="M78.88,402.24c-2.775-1.425-5.097-3.332-7.629-5.497c-5.042-4.309-9.403-8.276-13.33-12.128
					c-1.651-1.62-3.209-3.247-4.111-5.344c-1.148-2.67-0.965-6.358,1.602-8.242c2.438-1.794,4.964-1.373,7.501,1.243
					c2.416,2.488,5.139,4.834,7.773,7.105c1.911,1.645,3.886,3.348,5.75,5.108c2.742,2.588,5.174,4.998,7.436,7.37l0,0
					c1.342,1.408,2.592,2.827,3.151,4.708c0.635,2.129,0.099,4.932-2.151,6.168c-0.68,0.374-1.431,0.561-2.251,0.561
					C81.496,403.293,80.246,402.941,78.88,402.24z M57.211,373.48c-1.274,0.937-1.264,3.063-0.607,4.589
					c0.684,1.592,1.966,2.923,3.446,4.376c3.877,3.801,8.187,7.722,13.176,11.988c2.385,2.037,4.56,3.828,7.044,5.102
					c0.968,0.497,2.3,0.992,3.137,0.531c0.79-0.434,0.979-1.704,0.701-2.635c-0.367-1.235-1.32-2.306-2.436-3.476l0,0
					c-2.224-2.334-4.619-4.708-7.323-7.258c-1.814-1.713-3.764-3.393-5.648-5.017c-2.684-2.313-5.46-4.704-7.97-7.29
					c-0.986-1.016-1.676-1.411-2.286-1.411C58.017,372.98,57.631,373.173,57.211,373.48z M82.756,392.905h0.015H82.756z"/>
			</g>
			<g>
				<path style="fill:#BFD8B6;" d="M83.254,383.336c1.513,1.47,3.409,3.06,5.469,2.606c2.208-0.486,3.268-3.236,2.741-5.434
					c-0.528-2.198-2.157-3.938-3.728-5.563c-6.41-6.632-12.886-13.212-19.773-19.346c-1.775-1.581-4.024-3.242-6.307-2.579
					c-1.314,0.381-2.329,1.52-2.765,2.816c-1.039,3.087,0.563,4.367,2.58,6.327c2.395,2.327,4.789,4.655,7.184,6.982
					C73.521,373.876,78.388,378.606,83.254,383.336z"/>
				<path style="fill:#BFD8B6;" d="M82.194,384.426L82.194,384.426l-22.141-21.519c-1.911-1.843-3.886-3.746-2.601-7.557
					c0.619-1.841,2.068-3.293,3.782-3.791c2.995-0.875,5.71,1.097,7.742,2.904c7.17,6.386,14.007,13.376,19.854,19.425
					c1.547,1.6,3.473,3.59,4.114,6.264c0.405,1.691,0.104,3.566-0.803,5.017c-0.738,1.179-1.835,1.981-3.09,2.257
					c-0.358,0.079-0.71,0.114-1.053,0.114C85.401,387.541,83.279,385.48,82.194,384.426z M62.081,354.478
					c-0.76,0.221-1.446,0.944-1.749,1.843c-0.638,1.896-0.068,2.566,1.831,4.396l22.151,21.529c1.292,1.253,2.799,2.494,4.082,2.211
					c0.579-0.128,0.953-0.56,1.167-0.9c0.469-0.751,0.635-1.808,0.423-2.695c-0.414-1.728-1.701-3.164-3.342-4.86
					c-5.81-6.012-12.6-12.953-19.691-19.268c-1.259-1.121-2.831-2.343-4.249-2.343C62.492,354.392,62.283,354.42,62.081,354.478z
					 M83.239,383.336h0.015H83.239z"/>
			</g>
			<g>
				<path style="fill:#BFD8B6;" d="M88.063,364.043c0.961,0.854,1.962,1.713,3.166,2.164c1.204,0.45,2.671,0.417,3.658-0.408
					c0.951-0.795,1.262-2.167,1.071-3.392c-0.191-1.225-0.807-2.339-1.452-3.398c-4.656-7.648-11.249-13.892-17.761-20.037
					c-1.401-1.322-2.942-2.712-4.855-2.936c-4.805-0.564-6.437,5.543-3.491,8.522c3.948,3.993,7.843,8.068,11.818,12.047
					C82.763,359.155,85.369,361.648,88.063,364.043z"/>
				<path style="fill:#BFD8B6;" d="M90.698,367.63c-1.523-0.569-2.75-1.656-3.645-2.45v-0.001c-2.532-2.251-5.119-4.704-7.914-7.5
					c-2.254-2.258-4.482-4.546-6.711-6.833c-1.7-1.746-3.402-3.491-5.11-5.22c-1.994-2.016-2.494-5.256-1.215-7.88
					c1.133-2.324,3.375-3.532,5.964-3.222c2.49,0.293,4.356,2.055,5.721,3.341c6.502,6.137,13.225,12.481,18.018,20.353
					c0.675,1.109,1.416,2.422,1.656,3.955c0.292,1.886-0.321,3.721-1.599,4.79c-0.828,0.695-1.915,1.054-3.07,1.054
					C92.104,368.018,91.393,367.89,90.698,367.63z M68.837,339.08c-0.61,1.25-0.585,3.165,0.643,4.408
					c1.715,1.736,3.421,3.486,5.127,5.237c2.22,2.278,4.439,4.557,6.684,6.805c2.75,2.753,5.296,5.165,7.782,7.376
					c0.961,0.854,1.77,1.534,2.689,1.877c0.682,0.252,1.606,0.306,2.15-0.151c0.453-0.377,0.671-1.177,0.545-1.99
					c-0.153-0.983-0.701-1.944-1.249-2.842c-4.579-7.523-11.151-13.725-17.507-19.722c-1.366-1.29-2.61-2.371-3.986-2.533
					c-0.153-0.018-0.3-0.027-0.438-0.027C69.903,337.518,69.195,338.346,68.837,339.08z M88.048,364.043h0.015H88.048z"/>
			</g>
			<g>
				<path style="fill:#62707D;" d="M76.267,404.128c0.336,0.121,0.696,0.261,0.883,0.565c0.206,0.334,0.139,0.761,0.065,1.146
					c-0.548,2.862-1.102,5.747-2.214,8.44c-1.111,2.694-2.834,5.217-5.282,6.796c-2.514,1.621-5.66,2.134-8.616,1.677
					c-2.697-0.418-5.312-1.653-7.13-3.689c-2.622-2.936-3.319-7.203-2.75-11.098c0.442-3.031,1.565-5.9,2.806-8.683
					c0.331-0.743,0.674-2.231,1.571-2.487c0.89-0.254,2.95,0.959,3.822,1.273C65.037,400.088,70.652,402.108,76.267,404.128z"/>
				<path style="fill:#62707D;" d="M60.871,424.254c-3.216-0.497-6.07-1.981-8.033-4.178c-2.687-3.008-3.825-7.504-3.119-12.331
					c0.481-3.299,1.688-6.315,2.922-9.082c0.056-0.129,0.114-0.285,0.177-0.453c0.364-0.981,0.915-2.465,2.365-2.878
					c1.105-0.31,2.389,0.218,3.954,0.949c0.315,0.147,0.594,0.282,0.8,0.355l16.843,6.061c0.416,0.148,1.186,0.425,1.663,1.197
					c0.53,0.858,0.35,1.786,0.266,2.23c-0.555,2.897-1.129,5.893-2.301,8.735c-1.365,3.309-3.393,5.9-5.865,7.495
					c-2.104,1.356-4.707,2.076-7.385,2.076C62.399,424.43,61.633,424.372,60.871,424.254z M58.908,399.499
					c-0.27-0.098-0.643-0.267-1.059-0.462c-0.472-0.221-1.411-0.659-1.751-0.76c-0.151,0.238-0.336,0.734-0.432,0.993
					c-0.086,0.235-0.169,0.451-0.25,0.631c-1.143,2.567-2.261,5.35-2.69,8.284c-0.575,3.935,0.292,7.531,2.38,9.866
					c1.494,1.672,3.706,2.808,6.23,3.198c2.719,0.422,5.476-0.108,7.557-1.452c2.462-1.587,3.915-4.191,4.702-6.098
					c1.056-2.558,1.599-5.399,2.126-8.148c0-0.001,0-0.001,0-0.003L58.908,399.499z M76.016,405.665c0,0,0,0-0.002,0
					C76.016,405.665,76.016,405.665,76.016,405.665z M76.253,404.129h0.015H76.253z"/>
			</g>
			<path style="fill:#62707D;" d="M58.337,421.288c-0.823-0.034-1.563,0.575-1.623,1.412c-0.438,6.319-7.532,10.598-13.565,10.364
				c-5.543-0.154-11.246-2.812-17.949-8.364c-1.437-1.189-2.842-2.426-4.246-3.664c-3.905-3.437-7.942-6.992-12.671-9.513
				c-2.147-1.144-4.415-2.049-6.751-2.718v3.175c1.834,0.581,3.619,1.321,5.319,2.227c4.417,2.353,8.319,5.789,12.092,9.111
				c1.428,1.258,2.857,2.515,4.318,3.725c4.564,3.779,11.584,8.831,19.802,9.061c0.148,0.003,0.298,0.006,0.447,0.006
				c7.485,0,15.683-5.204,16.239-13.199C59.806,422.073,59.174,421.347,58.337,421.288z"/>
		</g>
		<g>
			<g>
				<path style="fill:#62707D;" d="M184.734,540.24c-4.31,0-8.41-0.966-11.906-2.873c-5.154-2.812-8.846-7.425-12.485-12.304
					l-0.389-0.523c-3.165-4.249-6.438-8.643-10.788-11.456c-1.084-0.701-2.315-1.311-3.621-1.771
					c-0.04,0.978-0.169,1.969-0.419,2.949c-1.047,4.107-4.322,7.254-7.967,7.657c-2.203,0.245-4.569-0.708-6.151-2.482
					c-1.387-1.557-1.942-3.505-1.52-5.344c0.523-2.288,2.26-3.81,3.624-4.683c2.601-1.664,5.791-2.313,9.094-1.985
					c-0.186-1.035-0.434-2.024-0.679-2.921c-3.586-13.036-12.119-24.776-23.41-32.209c-0.701-0.462-0.895-1.405-0.434-2.105
					c0.46-0.699,1.406-0.898,2.105-0.433c11.899,7.832,20.891,20.205,24.669,33.942c0.358,1.299,0.714,2.776,0.921,4.341
					c1.852,0.53,3.693,1.363,5.439,2.491c4.811,3.112,8.251,7.73,11.575,12.194l0.389,0.521c3.428,4.598,6.889,8.934,11.503,11.452
					c5.26,2.869,12.148,3.295,18.893,1.169c5.528-1.739,10.943-5.011,17.042-10.298c0.634-0.549,1.593-0.481,2.145,0.153
					c0.549,0.635,0.481,1.595-0.153,2.146c-6.425,5.569-12.182,9.033-18.121,10.901C190.962,539.751,187.794,540.24,184.734,540.24z
					 M140.46,510.398c-2.006,0-3.981,0.465-5.71,1.572c-0.726,0.463-1.99,1.446-2.3,2.8c-0.272,1.186,0.402,2.165,0.828,2.643
					c0.921,1.035,2.306,1.621,3.547,1.482c2.814-0.31,4.748-3.008,5.354-5.385c0.245-0.965,0.341-1.961,0.336-2.956
					C141.832,510.452,141.145,510.398,140.46,510.398z"/>
			</g>
			<g>
				<path style="fill:#677C65;" d="M112.559,446.695c-1.797-2.668-3.595-5.336-5.392-8.005c-0.429-0.637-0.868-1.285-1.472-1.759
					c-0.604-0.474-1.411-0.756-2.151-0.551c-0.74,0.205-1.326,1.001-1.129,1.743c0.069,0.258,0.219,0.486,0.366,0.709
					c2.01,3.03,4.02,6.06,6.03,9.09c0.054-0.074,0.107-0.148,0.161-0.222"/>
				<path style="fill:#677C65;" d="M108.811,449.444c-0.01,0-0.019,0-0.03,0c-0.499-0.01-0.961-0.264-1.237-0.68l-6.03-9.091
					c-0.184-0.279-0.435-0.658-0.569-1.152c-0.402-1.516,0.601-3.164,2.191-3.605c1.134-0.31,2.444-0.007,3.497,0.821
					c0.793,0.622,1.324,1.41,1.792,2.105l5.393,8.004c0.469,0.696,0.285,1.641-0.411,2.11c-0.693,0.468-1.639,0.287-2.11-0.411
					l-5.393-8.004c-0.376-0.558-0.732-1.085-1.149-1.412c-0.279-0.218-0.606-0.333-0.803-0.284c0.031,0.049,0.068,0.105,0.098,0.15
					l5.506,8.303c0.105,0.043,0.206,0.099,0.303,0.169c0.682,0.49,0.836,1.44,0.346,2.122l-0.16,0.223
					C109.758,449.209,109.3,449.444,108.811,449.444z"/>
			</g>
			<g>
				<path style="fill:#677C65;" d="M101.92,453.126c-1.804-2.758-3.633-5.5-5.461-8.241c-0.398-0.597-0.808-1.207-1.39-1.627
					c-0.582-0.42-1.38-0.616-2.027-0.306c-0.728,0.349-1.061,1.245-0.988,2.049c0.073,0.804,0.468,1.538,0.867,2.24
					c1.769,3.114,3.76,6.101,5.954,8.932"/>
				<path style="fill:#677C65;" d="M98.877,457.692c-0.454,0-0.903-0.202-1.203-0.589c-2.23-2.876-4.275-5.941-6.074-9.111
					c-0.482-0.848-0.961-1.767-1.06-2.855c-0.138-1.531,0.603-2.961,1.844-3.556c1.102-0.524,2.472-0.352,3.575,0.445
					c0.814,0.588,1.342,1.379,1.765,2.015c1.831,2.747,3.66,5.492,5.467,8.252c0.46,0.704,0.263,1.645-0.439,2.105
					c-0.704,0.459-1.645,0.261-2.105-0.44c-1.801-2.754-3.627-5.494-5.452-8.232c-0.318-0.477-0.646-0.969-1.016-1.237
					c-0.223-0.16-0.435-0.186-0.486-0.166c-0.048,0.039-0.15,0.27-0.125,0.539c0.043,0.484,0.331,1.022,0.674,1.626
					c1.73,3.044,3.693,5.988,5.834,8.751c0.515,0.662,0.394,1.618-0.269,2.132C99.53,457.588,99.202,457.692,98.877,457.692z"/>
			</g>
			<g>
				<path style="fill:#BFD8B6;" d="M116.808,441.983c-7.192,4.701-14.384,9.402-21.576,14.103c-0.776,0.507-1.622,1.118-1.775,2.032
					c-0.138,0.831,0.349,1.625,0.822,2.323c1.21,1.788,2.459,3.549,3.745,5.283c1.476,1.989,3.022,3.962,4.962,5.503
					c1.94,1.541,4.329,2.632,6.806,2.603c3.304-0.039,6.237-2,8.949-3.888c1.764-1.228,3.548-2.473,4.954-4.098
					c1.406-1.625,1.893-3.743,2.342-5.845c0.323-1.514-0.278-4.119-2.709-8.354C121.249,448.025,119.422,445.237,116.808,441.983"/>
				<path style="fill:#BFD8B6;" d="M109.689,475.35c-3.266,0-5.958-1.589-7.649-2.932c-2.114-1.679-3.746-3.779-5.237-5.788
					c-1.287-1.734-2.56-3.529-3.783-5.336c-0.459-0.677-1.311-1.936-1.063-3.425c0.273-1.636,1.685-2.56,2.444-3.056l21.576-14.102
					c0.656-0.432,1.528-0.289,2.016,0.321c2.506,3.121,4.373,5.886,6.653,9.857c2.399,4.178,3.341,7.262,2.877,9.428
					c-0.432,2.025-0.97,4.546-2.677,6.522c-1.543,1.78-3.421,3.087-5.237,4.35c-2.635,1.834-5.914,4.114-9.801,4.16
					C109.769,475.35,109.729,475.35,109.689,475.35z M116.476,444.017l-20.412,13.34c-0.288,0.189-1.054,0.689-1.108,1.011
					c-0.048,0.29,0.41,0.967,0.582,1.22c1.198,1.77,2.445,3.529,3.706,5.229c1.37,1.844,2.861,3.768,4.687,5.217
					c1.875,1.489,3.966,2.285,5.843,2.273c2.73-0.031,5.284-1.656,8.099-3.615c1.663-1.157,3.381-2.353,4.674-3.846
					c1.109-1.281,1.547-3.023,2.004-5.167c0.134-0.625,0.153-2.586-2.542-7.278C120.081,449.044,118.465,446.589,116.476,444.017z"
					/>
			</g>
		</g>
	</g>
	<g>
		<g>
			
				<text transform="matrix(1 0 0 1 285.6624 552.741)" style="fill:#677C65; font-family:'AdventPro-Bold'; font-size:19.4793px; letter-spacing:1;">SKILLS</text>
			
				<text transform="matrix(1 0 0 1 262.9754 574.1667)" style="fill:#424F40; font-family:'AdventPro-SemiBold'; font-size:15.2447px;">Skill group</text>
			<g>
				<g>
					
						<text transform="matrix(1 0 0 1 263.0476 601.8992)" style="fill:#404952; font-family:'AdventPro-Bold'; font-size:12.7039px;">Skill</text>
				</g>
				
					<ellipse transform="matrix(0.2298 -0.9732 0.9732 0.2298 -347.8827 754.7438)" style="fill:#BFD8B6;" cx="302.889" cy="597.156" rx="8.758" ry="8.758"/>
				
					<ellipse transform="matrix(0.1606 -0.987 0.987 0.1606 -256.1797 893.0743)" style="fill:#73A866;" cx="396.988" cy="597.156" rx="8.758" ry="8.758"/>
				
					<ellipse transform="matrix(0.1667 -0.986 0.986 0.1667 -277.5916 865.8537)" style="fill:#73A866;" cx="373.463" cy="597.156" rx="8.758" ry="8.758"/>
				
					<ellipse transform="matrix(0.1606 -0.987 0.987 0.1606 -295.672 846.6358)" style="fill:#BFD8B6;" cx="349.939" cy="597.156" rx="8.758" ry="8.758"/>
				
					<ellipse transform="matrix(0.1606 -0.987 0.987 0.1606 -315.4181 823.4166)" style="fill:#BFD8B6;" cx="326.414" cy="597.156" rx="8.758" ry="8.758"/>
				<g>
					<text transform="matrix(1 0 0 1 262.9754 630.28)" style="fill:#404952; font-family:'AdventPro-Bold'; font-size:12.7039px;">Skill</text>
				</g>
				
					<ellipse transform="matrix(0.1602 -0.9871 0.9871 0.1602 -363.1492 824.2441)" style="fill:#BFD8B6;" cx="302.817" cy="625.537" rx="8.758" ry="8.758"/>
				
					<ellipse transform="matrix(0.2306 -0.973 0.973 0.2306 -303.2958 867.4938)" style="fill:#73A866;" cx="396.916" cy="625.537" rx="8.758" ry="8.758"/>
				
					<ellipse transform="matrix(0.7503 -0.6611 0.6611 0.7503 -320.3088 403.0549)" style="fill:#73A866;" cx="373.391" cy="625.537" rx="8.758" ry="8.758"/>
				
					<ellipse transform="matrix(0.7071 -0.7071 0.7071 0.7071 -339.8483 430.6086)" style="fill:#BFD8B6;" cx="349.866" cy="625.537" rx="8.758" ry="8.758"/>
				
					<ellipse transform="matrix(0.1606 -0.987 0.987 0.1606 -343.4911 847.1678)" style="fill:#BFD8B6;" cx="326.342" cy="625.537" rx="8.758" ry="8.758"/>
				<g>
					
						<text transform="matrix(1 0 0 1 263.7864 658.6619)" style="fill:#404952; font-family:'AdventPro-Bold'; font-size:12.7039px;">Skill</text>
				</g>
				<circle style="fill:#BFD8B6;" cx="303.628" cy="653.919" r="8.758"/>
				<circle style="fill:#73A866;" cx="397.727" cy="653.919" r="8.758"/>
				<circle style="fill:#73A866;" cx="374.202" cy="653.919" r="8.758"/>
				<circle style="fill:#BFD8B6;" cx="350.677" cy="653.919" r="8.758"/>
				<circle style="fill:#BFD8B6;" cx="327.153" cy="653.919" r="8.758"/>
				<g>
					
						<text transform="matrix(1 0 0 1 263.7146 687.0427)" style="fill:#404952; font-family:'AdventPro-Bold'; font-size:12.7039px;">Skill</text>
				</g>
				
					<ellipse transform="matrix(0.9213 -0.3888 0.3888 0.9213 -241.3884 171.6974)" style="fill:#BFD8B6;" cx="303.556" cy="682.299" rx="8.758" ry="8.758"/>
				
					<ellipse transform="matrix(0.2385 -0.9712 0.9712 0.2385 -359.7878 905.7783)" style="fill:#73A866;" cx="397.655" cy="682.299" rx="8.758" ry="8.758"/>
				
					<ellipse transform="matrix(0.923 -0.3847 0.3847 0.923 -233.7066 196.4594)" style="fill:#73A866;" cx="374.13" cy="682.299" rx="8.758" ry="8.758"/>
				
					<ellipse transform="matrix(0.9124 -0.4093 0.4093 0.9124 -248.538 203.2545)" style="fill:#BFD8B6;" cx="350.605" cy="682.299" rx="8.758" ry="8.758"/>
				
					<ellipse transform="matrix(0.923 -0.3847 0.3847 0.923 -237.3281 178.3578)" style="fill:#BFD8B6;" cx="327.081" cy="682.299" rx="8.758" ry="8.758"/>
			</g>
		</g>
		
			<text transform="matrix(1 0 0 1 284.8694 115.0642)" style="fill:#677C65; font-family:'AdventPro-Bold'; font-size:19.4793px; letter-spacing:1;">about me</text>
		
			<text transform="matrix(1 0 0 1 284.0227 224.2693)" style="fill:#677C65; font-family:'AdventPro-Bold'; font-size:19.4793px; letter-spacing:1;">Experience</text>
		
			<text transform="matrix(1 0 0 1 262.2366 248.679)" style="fill:#424F40; font-family:'AdventPro-SemiBold'; font-size:15.2447px;">YYYY - Present</text>
		<rect x="262.237" y="259.527" style="fill:none;" width="169.16" height="46.112"/>
		<text transform="matrix(1 0 0 1 262.2371 266.6414)"><tspan x="0" y="0" style="fill:#404952; font-family:'AdventPro-Medium'; font-size:10.1631px;">Company</tspan><tspan x="0" y="12.704" style="fill:#404952; font-family:'AdventPro-Medium'; font-size:10.1631px;">Function title city</tspan><tspan x="0" y="25.408" style="fill:#404952; font-family:'AdventPro-Medium'; font-size:10.1631px;">Description of the job, possition and </tspan><tspan x="0" y="38.111" style="fill:#404952; font-family:'AdventPro-Medium'; font-size:10.1631px;">responsibilities</tspan></text>
		<g>
			<rect x="262.732" y="129.044" style="fill:none;" width="173.854" height="67.466"/>
			<text transform="matrix(1 0 0 1 262.7322 136.159)"><tspan x="0" y="0" style="fill:#404952; font-family:'AdventPro-Medium'; font-size:10.1631px;">Lorem ipsum dolor sit amet, consectetur </tspan><tspan x="0" y="12.704" style="fill:#404952; font-family:'AdventPro-Medium'; font-size:10.1631px;">adipiscing elit. Quisque sit amet maximus </tspan><tspan x="0" y="25.408" style="fill:#404952; font-family:'AdventPro-Medium'; font-size:10.1631px;">magna, ac vestibulum tortor. Ut eu ante </tspan><tspan x="0" y="38.111" style="fill:#404952; font-family:'AdventPro-Medium'; font-size:10.1631px;">ac metus mattis tempor vel eget ex. </tspan></text>
		</g>
		
			<text transform="matrix(1 0 0 1 262.2366 334.4778)" style="fill:#424F40; font-family:'AdventPro-SemiBold'; font-size:15.2447px;">YYYY - Present</text>
		<rect x="262.237" y="345.326" style="fill:none;" width="169.16" height="46.112"/>
		<text transform="matrix(1 0 0 1 262.2366 352.4402)"><tspan x="0" y="0" style="fill:#404952; font-family:'AdventPro-Medium'; font-size:10.1631px;">Company</tspan><tspan x="0" y="12.704" style="fill:#404952; font-family:'AdventPro-Medium'; font-size:10.1631px;">Function title city</tspan><tspan x="0" y="25.408" style="fill:#404952; font-family:'AdventPro-Medium'; font-size:10.1631px;">Description of the job, possition and </tspan><tspan x="0" y="38.111" style="fill:#404952; font-family:'AdventPro-Medium'; font-size:10.1631px;">responsibilities</tspan></text>
		
			<text transform="matrix(1 0 0 1 283.6082 439.9099)" style="fill:#677C65; font-family:'AdventPro-Bold'; font-size:19.4793px; letter-spacing:1;">education</text>
		<g>
			
				<ellipse transform="matrix(0.7071 -0.7071 0.7071 0.7071 3.1292 223.2251)" style="fill:#73A866;" cx="271.021" cy="107.835" rx="8.785" ry="8.785"/>
			<circle style="fill:#73A866;" cx="271.021" cy="215.901" r="8.785"/>
			
				<ellipse transform="matrix(0.7071 -0.7071 0.7071 0.7071 -305.9626 351.2552)" style="fill:#73A866;" cx="271.021" cy="544.957" rx="8.785" ry="8.785"/>
			
				<ellipse transform="matrix(0.7071 -0.7071 0.7071 0.7071 -226.982 316.7938)" style="fill:#73A866;" cx="268.913" cy="432.388" rx="8.785" ry="8.785"/>
		</g>
		<rect x="262.237" y="456.11" style="fill:none;" width="169.16" height="46.112"/>
		<text transform="matrix(1 0 0 1 262.2366 463.2249)"><tspan x="0" y="0" style="fill:#404952; font-family:'AdventPro-Medium'; font-size:10.1631px;">Education/course name</tspan><tspan x="0" y="12.704" style="fill:#404952; font-family:'AdventPro-Medium'; font-size:10.1631px;">Organization City</tspan><tspan x="0" y="25.408" style="fill:#404952; font-family:'AdventPro-Medium'; font-size:10.1631px;">Description of the education/course</tspan></text>
	</g>
</g>
</svg>
