<?xml version="1.0" encoding="utf-8"?>
<!-- Generator: Adobe Illustrator 27.5.0, SVG Export Plug-In . SVG Version: 6.00 Build 0)  -->
<svg version="1.1" xmlns="http://www.w3.org/2000/svg" xmlns:xlink="http://www.w3.org/1999/xlink" x="0px" y="0px"
	 viewBox="0 0 750 500" style="enable-background:new 0 0 750 500;" xml:space="preserve">
<g id="BACKGROUND">
	<rect style="fill:#FBEDFF;" width="750" height="500"/>
</g>
<g id="OBJECTS">
	<g>
		<path style="fill:#EFDEFF;" d="M497.53,449.985L0,449.843V65.135c10.37,4.7,19.41,12.38,25.4,22.08
			c6.08,9.83,9.41,21.75,18.17,29.29c12.86,11.06,33.61,9.33,45.74,21.19c11.35,11.1,10.85,29.82,20.11,42.72
			c8.35,11.63,26.74,19.92,39.04,12.6c7.72-4.59,18.16-0.98,24.23,5.64c6.06,6.62,8.87,15.5,11.82,23.97
			c2.95,8.48,6.49,17.25,13.45,22.93c10.66,8.68,26.06,7.68,39.57,5.11c13.51-2.56,27.77-6.19,40.66-1.4
			c14.33,5.32,23.06,19.61,29.76,33.35c6.71,13.74,13.05,28.61,25.5,37.48c21.78,15.54,55.45,7.82,74.63,26.48
			c13.21,12.86,14.75,34.14,27.17,47.76c9.96,10.93,25.1,15.08,38.28,21.79S499.61,435.345,497.53,449.985z"/>
		<path style="fill:#FEFCFF;" d="M725.9,45.915c-12.98,24.79-51.37,23.83-68.35,46.06c-14.62,19.14-8,48.36-21.81,68.08
			c-16.5,23.55-54.26,23.15-71.42,46.22c-13.37,17.98-9.92,44.9-24.39,62.02c-19.5,23.08-60.51,16.16-80.01,39.25
			c-9.86,11.66-11.43,27.93-14.34,42.92c-0.29,1.47-0.6,2.95-0.96,4.44c-1.85-3.02-3.98-5.83-6.54-8.33
			c-19.18-18.66-52.85-10.94-74.63-26.48c-12.45-8.87-18.79-23.74-25.5-37.48c-6.7-13.74-15.43-28.03-29.76-33.35
			c-12.89-4.79-27.15-1.16-40.66,1.4c-13.51,2.57-28.91,3.57-39.57-5.11c-6.96-5.68-10.5-14.45-13.45-22.93
			c-2.79-8.02-5.46-16.41-10.89-22.9c7.21-6.09,15.46-10.91,24.42-13.99c14.99-5.15,31.49-5.84,45.59-13.07
			c22.06-11.31,33.47-35.8,43.06-58.66c9.58-22.86,20.31-47.47,41.84-59.75c25.47-14.52,59.49-7.73,83.93-23.91
			C454.01,22.705,462.284,10.89,470.914,0H731.1c-0.26,2.35-0.4,4.675-0.45,6.915C730.35,20.145,732.04,34.195,725.9,45.915z"/>
		<path style="fill:#E5D4F5;" d="M43.07,449.985c-5.788-18.958-8.164-37.857-7.593-57.671c0.2-6.958,0.856-14.114,4.038-20.305
			c3.182-6.191,9.424-11.249,16.384-11.155c6.96,0.093,13.648,6.806,12.159,13.606c-3.22-22.078-1.859-44.813,3.971-66.349
			c1.711-6.322,4.129-12.992,9.528-16.698c5.399-3.706,14.506-2.381,16.429,3.879c-0.036-11.424,0.051-23.051,3.458-33.955
			c3.408-10.904,10.676-21.166,21.275-25.43c10.598-4.264,24.526-0.851,29.888,9.236c-0.789-11.679-1.544-23.666,1.887-34.858
			c3.431-11.191,12.02-21.583,23.539-23.663s24.749,7.208,23.87,18.88c0.911-8.712,1.895-17.671,6.001-25.409
			c4.107-7.737,12.14-14.059,20.88-13.46c10.2,0.7,17.562,10.127,21.638,19.503c4.076,9.376,6.461,19.808,13.175,27.518
			c1.996-9.178,4.165-18.481,8.812-26.643c4.647-8.162,12.185-15.16,21.401-16.967c13.254-2.599,26.625,6.279,33.54,17.882
			c6.914,11.603,8.787,25.425,10.517,38.82h150.756c0.438-8.169,2.022-18.074,4.154-25.973s6.103-15.534,12.478-20.661
			c6.375-5.127,15.397-7.356,23.016-4.378c10.005,3.911,14.971,15.125,17.362,25.598c3.185-3.843,9.31-4.853,13.448-2.062
			c4.138,2.791,6.299,7.841,6.767,12.811c0.469,4.969-0.529,9.947-1.523,14.838c3.892-6.269,8.589-11.741,14.307-16.404
			c5.718-4.663,13.574-7.366,20.603-5.122c6.794,2.169,11.565,8.557,13.684,15.366c2.12,6.809,2.009,14.084,1.879,21.214
			c1.002-6.679,9.604-8.845,16.326-8.193c6.722,0.653,12.492,5.535,15.742,11.455c3.25,5.92,4.333,12.777,4.851,19.51
			c0.924,12.016,0.21,24.157-2.117,35.982c1.462-6.155,9.697-7.79,15.82-6.197c6.123,1.593,10.647,7.098,12.618,13.11
			c1.97,6.012,1.77,12.506,1.198,18.807c-0.571,6.301-1.492,12.629-0.893,18.927c0.46-6.855,8.42-10.216,15.234-9.329
			c6.813,0.886,12.382,6.335,15.12,12.637c2.738,6.302,3.086,13.366,2.948,20.235c-0.554,27.763-9.746,57.288-24.059,81.082
			L43.07,449.985z"/>
	</g>
	<g>
		<g>
			<polygon style="fill:#FFFFFF;" points="588.013,62.124 590.063,67.734 580.574,62.158 			"/>
			<path style="fill:#E5D4F5;" d="M608.272,53.222h31.364c6.6,0,12-5.4,12-12v-2.478c0-6.6-5.4-12-12-12h-31.364
				c-6.6,0-12,5.4-12,12v2.478C596.272,47.822,601.672,53.222,608.272,53.222z"/>
		</g>
		<g>
			<g>
				<polygon style="fill:#E5D4F5;" points="152.395,72.622 170.786,63.647 156.033,63.647 				"/>
				<path style="fill:#E5D4F5;" d="M196.697,63.647h-40.664c-6.6,0-12-5.4-12-12V31.56c0-6.6,5.4-12,12-12h40.664
					c6.6,0,12,5.4,12,12v20.087C208.697,58.247,203.297,63.647,196.697,63.647z"/>
			</g>
		</g>
		<path style="fill:#E5D4F5;" d="M683.385,202.36h-8.716c-4.08,0-7.418-3.338-7.418-7.418l0,0c0-4.08,3.338-7.418,7.418-7.418h8.716
			c4.08,0,7.418,3.338,7.418,7.418l0,0C690.803,199.022,687.465,202.36,683.385,202.36z"/>
		<path style="fill:#FFFFFF;" d="M57.693,290.005H46.94c-5.58,0-10.145-4.565-10.145-10.145l0,0c0-5.58,4.565-10.145,10.145-10.145
			h10.753c5.58,0,10.145,4.565,10.145,10.145l0,0C67.838,285.44,63.273,290.005,57.693,290.005z"/>
		<path style="fill:#FFFFFF;" d="M644.626,373.604h-8.263c-4.287,0-7.795-3.58-7.795-7.956l0,0c0-4.376,3.508-7.956,7.795-7.956
			h8.263c4.287,0,7.795,3.58,7.795,7.956l0,0C652.421,370.024,648.913,373.604,644.626,373.604z"/>
	</g>
	<g>
		
			<line style="fill:none;stroke:#211F20;stroke-width:0.5;stroke-linecap:round;stroke-linejoin:round;stroke-miterlimit:10;" x1="26.044" y1="450" x2="726.043" y2="450"/>
		<g>
			<path style="fill:none;stroke:#211F20;stroke-width:0.5;stroke-linecap:round;stroke-linejoin:round;stroke-miterlimit:10;" d="
				M596.969,449.985c-1.851-3.707-4.009-9.493-3.826-13.632c0.183-4.14,3.256-8.466,7.399-8.484c2.737-0.013,5.21,1.841,6.687,4.145
				c1.477,2.305,2.137,5.023,2.774,7.685c-2.642-10.68-2.435-22.05,0.593-32.627c0.834-2.911,1.915-5.831,3.874-8.14
				c1.959-2.309,4.949-3.928,7.956-3.566c2.601,0.313,4.866,2.055,6.36,4.206c1.495,2.151,2.319,4.689,3.017,7.214
				c2.784,10.082,3.844,20.639,3.12,31.073c0.787-8.803,3.268-17.452,7.269-25.333c1.425-2.807,3.116-5.601,5.683-7.423
				c2.567-1.822,6.207-2.45,8.869-0.769c2.734,1.726,3.676,5.228,4.132,8.428c1.13,7.932,0.642,16.092-1.426,23.833
				c1.365-4.087,2.857-8.372,6.081-11.231c3.224-2.859,8.763-3.591,11.628-0.372c1.508,1.694,1.968,4.065,2.157,6.325
				c0.536,6.421-1.441,12.877-4.238,18.682L596.969,449.985z"/>
			<path style="fill:none;stroke:#211F20;stroke-width:0.5;stroke-linecap:round;stroke-linejoin:round;stroke-miterlimit:10;" d="
				M53.971,450.034c-1.511-1.855-3.409-5.182-3.804-7.541c-0.395-2.359,0.869-5.177,3.221-5.612
				c2.149-0.398,4.364,1.721,4.062,3.885c-2.694-5.152-2.842-11.561-0.388-16.831c0.814-1.749,2.204-3.556,4.132-3.61
				c2.213-0.062,3.732,2.161,4.66,4.171c2.096,4.541,3.462,9.418,4.03,14.387c-0.098-2.17-0.176-4.441,0.75-6.406
				c0.926-1.965,3.204-3.478,5.263-2.783c2.207,0.744,3.007,3.432,3.217,5.751c0.42,4.655,0.23,10.235-1.468,14.589H53.971z"/>
			<path style="fill:none;stroke:#211F20;stroke-width:0.5;stroke-linecap:round;stroke-linejoin:round;stroke-miterlimit:10;" d="
				M350.882,450c0.711-0.935,1.247-2.085,1.705-3.167c0.458-1.081,0.635-2.329,0.234-3.433c-0.483-1.33-1.833-2.296-3.248-2.324
				c-1.415-0.028-2.802,0.885-3.337,2.195c0.188-1.251,0.376-2.518,0.248-3.777c-0.128-1.259-0.607-2.529-1.559-3.363
				c-1.607-1.409-4.218-1.175-5.919,0.118s-2.611,3.397-3.014,5.495c0.032-2.029,0.028-4.112-0.682-6.013
				c-0.71-1.901-2.283-3.611-4.291-3.905c-2.452-0.359-4.792,1.512-5.803,3.775c-1.011,2.263-0.999,4.832-0.969,7.31
				c-0.275-1.708-1.655-3.184-3.34-3.574c-1.686-0.39-3.573,0.332-4.57,1.746c-0.897,1.272-1.053,2.951-0.767,4.481
				c0.287,1.53,1.372,3.034,2.052,4.434H350.882z"/>
		</g>
	</g>
	<g>
		<g>
			<g>
				<g>
					<g>
						<path style="fill:#FAF8F3;" d="M500,415H250c-13.807,0-25-11.193-25-25V90c0-13.807,11.193-25,25-25h275v325
							C525,403.807,513.807,415,500,415z"/>
					</g>
					<polygon style="fill:#FAF8F3;" points="525,65 550,65 525,90 					"/>
				</g>
			</g>
			<g>
				<g>
					<circle style="fill:#E3DED6;" cx="550" cy="90" r="25"/>
					<path style="fill:#E3DED6;" d="M565,139.077h-40V90h50v39.077C575,134.6,570.523,139.077,565,139.077z"/>
				</g>
			</g>
		</g>
		<g>
			<g>
				<g>
					
						<line style="fill:none;stroke:#211F20;stroke-width:0.5;stroke-linecap:round;stroke-linejoin:round;stroke-miterlimit:10;" x1="356.519" y1="120" x2="492.171" y2="120"/>
					
						<line style="fill:none;stroke:#211F20;stroke-width:0.5;stroke-linecap:round;stroke-linejoin:round;stroke-miterlimit:10;" x1="356.519" y1="100" x2="463.186" y2="100"/>
					
						<line style="fill:none;stroke:#211F20;stroke-width:0.5;stroke-linecap:round;stroke-linejoin:round;stroke-miterlimit:10;" x1="356.519" y1="140" x2="492.171" y2="140"/>
					
						<line style="fill:none;stroke:#211F20;stroke-width:0.5;stroke-linecap:round;stroke-linejoin:round;stroke-miterlimit:10;" x1="356.519" y1="160" x2="492.171" y2="160"/>
				</g>
				
					<rect x="469.671" y="87.5" transform="matrix(-1.836970e-16 1 -1 -1.836970e-16 579.6705 -384.6711)" style="fill:none;stroke:#211F20;stroke-width:0.5;stroke-linecap:round;stroke-linejoin:round;stroke-miterlimit:10;" width="25" height="20"/>
				<path style="fill:none;stroke:#F56438;stroke-width:3;stroke-miterlimit:10;" d="M476.379,97.002
					c1.522,2.87,3.562,5.465,5.993,7.621c1.863-4.749,3.727-9.498,5.591-14.247"/>
			</g>
			<g>
				<g>
					
						<line style="fill:none;stroke:#211F20;stroke-width:0.75;stroke-linecap:round;stroke-linejoin:round;stroke-miterlimit:10;" x1="356.519" y1="237.5" x2="492.171" y2="237.5"/>
					
						<line style="fill:none;stroke:#211F20;stroke-width:0.75;stroke-linecap:round;stroke-linejoin:round;stroke-miterlimit:10;" x1="356.519" y1="217.5" x2="463.186" y2="217.5"/>
					
						<line style="fill:none;stroke:#211F20;stroke-width:0.75;stroke-linecap:round;stroke-linejoin:round;stroke-miterlimit:10;" x1="356.519" y1="257.5" x2="492.171" y2="257.5"/>
					
						<line style="fill:none;stroke:#211F20;stroke-width:0.75;stroke-linecap:round;stroke-linejoin:round;stroke-miterlimit:10;" x1="356.519" y1="277.5" x2="492.171" y2="277.5"/>
				</g>
				
					<rect x="469.671" y="205" transform="matrix(-1.836970e-16 1 -1 -1.836970e-16 697.1708 -267.1708)" style="fill:none;stroke:#211F20;stroke-width:0.75;stroke-linecap:round;stroke-linejoin:round;stroke-miterlimit:10;" width="25" height="20"/>
			</g>
			<g>
				<g>
					
						<line style="fill:none;stroke:#211F20;stroke-width:0.75;stroke-linecap:round;stroke-linejoin:round;stroke-miterlimit:10;" x1="356.519" y1="337.5" x2="492.171" y2="337.5"/>
					
						<line style="fill:none;stroke:#211F20;stroke-width:0.75;stroke-linecap:round;stroke-linejoin:round;stroke-miterlimit:10;" x1="356.519" y1="317.5" x2="463.186" y2="317.5"/>
					
						<line style="fill:none;stroke:#211F20;stroke-width:0.75;stroke-linecap:round;stroke-linejoin:round;stroke-miterlimit:10;" x1="356.519" y1="357.5" x2="492.171" y2="357.5"/>
					
						<line style="fill:none;stroke:#211F20;stroke-width:0.75;stroke-linecap:round;stroke-linejoin:round;stroke-miterlimit:10;" x1="356.519" y1="377.5" x2="492.171" y2="377.5"/>
				</g>
				
					<rect x="469.671" y="305" transform="matrix(-1.836970e-16 1 -1 -1.836970e-16 797.1708 -167.1708)" style="fill:none;stroke:#211F20;stroke-width:0.75;stroke-linecap:round;stroke-linejoin:round;stroke-miterlimit:10;" width="25" height="20"/>
			</g>
		</g>
		<g>
			<g>
				<g>
					<path style="fill:#ECC4D9;" d="M279.895,234.389c1.221,6.644-0.642,13.79-4.951,18.992c2.675,0.35,5.349,0.699,8.024,1.049
						c2.631,0.344,5.262,0.688,7.892,1.032c2.066,0.27,4.157,0.54,6.227,0.304c2.14-0.244,4.205-1.025,6.357-1.113
						c3.313-0.135,6.684,1.373,9.87,0.455c-2.275-6.43-3.29-13.048-3.048-19.865C300.228,234.87,289.934,234.762,279.895,234.389z"
						/>
					<path style="fill:#B19AED;" d="M326.37,264.805c-7.31,9.26-18.64,15.2-31.37,15.2s-24.06-5.94-31.37-15.2l21.41-5.09h19.92
						L326.37,264.805z"/>
					<path style="fill:#FC916D;" d="M294.995,271.142c-10.23,0-9.96-11.43-9.96-11.43c1.18-2.5,2.02-5.16,2.48-7.88
						c0.17-0.99,0.29-1.99,0.36-2.99c0.01,0,0.04-0.03,0.05-0.03h14.15c0.01,0,0.04,0.03,0.05,0.03c0.26,3.76,1.23,7.46,2.84,10.87
						C304.965,259.712,305.235,271.142,294.995,271.142z"/>
					<path style="fill:#211F20;" d="M297.975,251.032c-0.51,0.7-1.41,0.99-2.26,1.17c-2.71,0.56-5.56,0.44-8.2-0.37
						c0.17-0.99,0.29-1.99,0.36-2.99c0.01,0,0.04-0.03,0.05-0.03h0.25c1.12,0.54,2.35,0.86,3.56,1.1
						C293.765,250.302,295.935,250.642,297.975,251.032z"/>
					<path style="fill:#FC916D;" d="M280.35,217.076c0.039,5.784,0.398,11.566,1.074,17.311c0.467,3.969,1.136,8.058,3.317,11.408
						c2.144,3.293,5.77,5.644,9.683,6.001c3.913,0.357,8.012-1.387,10.27-4.602c1.722-2.452,2.313-5.506,2.728-8.474
						c0.974-6.964,1.21-14.031,0.703-21.045C298.786,216.535,289.75,216.714,280.35,217.076z"/>
					<path style="fill:#FC916D;" d="M314.095,233.665c0,3.154-2.557,5.711-5.711,5.711c-3.154,0-5.711-2.557-5.711-5.711
						c0-3.154,2.557-5.711,5.711-5.711C311.538,227.954,314.095,230.511,314.095,233.665z"/>
					<path style="fill:#FC916D;" d="M287.356,233.304c0,3.154-2.557,5.711-5.711,5.711c-3.154,0-5.711-2.557-5.711-5.711
						s2.557-5.711,5.711-5.711C284.799,227.593,287.356,230.15,287.356,233.304z"/>
					<path style="fill:#ECC4D9;" d="M310.68,224.165c0.08,1.5-0.37,2.8-1.17,3.91c-0.36-0.08-0.74-0.12-1.13-0.12
						c-0.54,0-1.07,0.08-1.56,0.22c-0.87-2.48-2.81-4.58-5.25-5.56c-2.53-1.03-5.37-0.87-8.1-0.96c-2.74-0.09-5.47-0.65-7.43-2.56
						c-0.19,3.16-1.51,6.22-3.63,8.56c-0.25-0.04-0.51-0.06-0.77-0.06c-0.91,0-1.76,0.21-2.52,0.6c-2.41-3.87-2.85-9.06-1-13.25
						c2.08-4.73,6.76-8.15,11.87-8.95c5.11-0.79,10.5,0.98,14.33,4.45C308.15,213.925,310.4,219.005,310.68,224.165z"/>
				</g>
				<g>
					<g>
						
							<path style="fill:none;stroke:#231F20;stroke-width:0.4256;stroke-linecap:round;stroke-linejoin:round;stroke-miterlimit:10;" d="
							M293.711,230.245c-0.012,1.708-0.408,3.412-1.153,4.949c-0.412-0.236-1.047-0.16-1.372,0.185
							c-0.326,0.345-0.423,0.869-0.308,1.329c0.115,0.46,0.42,0.858,0.795,1.149c0.374,0.291,0.816,0.484,1.265,0.637"/>
						<path style="fill:#231F20;" d="M298.618,231.587c0.028,0.772,0.512,1.382,1.081,1.361c0.569-0.021,1.007-0.663,0.979-1.436
							c-0.028-0.772-0.512-1.382-1.08-1.361C299.028,230.172,298.59,230.815,298.618,231.587z"/>
						<path style="fill:#231F20;" d="M288.728,231.984c0.028,0.772,0.512,1.382,1.08,1.361c0.569-0.021,1.007-0.663,0.979-1.436
							c-0.028-0.772-0.512-1.382-1.08-1.361C289.138,230.569,288.7,231.212,288.728,231.984z"/>
					</g>
					<path style="fill:#211F20;" d="M300.591,229.075c0.518,0.098,1.154,0.105,1.458-0.326c0.269-0.381,0.131-0.912-0.086-1.325
						c-0.705-1.344-2.194-2.211-3.7-2.251c-0.712-0.019-1.885,0.115-2.133,0.933c-0.258,0.852,0.951,1.494,1.546,1.852
						C298.572,228.497,299.563,228.88,300.591,229.075z"/>
					<path style="fill:#211F20;" d="M289.942,228.583c-0.729,0.622-1.684,0.974-2.642,0.973c-0.389-0.001-0.84-0.099-1.011-0.448
						c-0.171-0.349,0.025-0.763,0.245-1.084c0.74-1.077,2.352-2.618,3.776-2.588C292.258,225.477,290.615,228.008,289.942,228.583z"
						/>
					
						<line style="fill:none;stroke:#231F20;stroke-width:0.4256;stroke-linecap:round;stroke-linejoin:round;stroke-miterlimit:10;" x1="293.353" y1="243.41" x2="301.114" y2="240.769"/>
				</g>
				<path style="fill:none;stroke:#211F20;stroke-linecap:round;stroke-linejoin:round;stroke-miterlimit:10;" d="M335,239.995
					c0,9.34-3.2,17.93-8.57,24.74c-0.02,0.02-0.04,0.05-0.06,0.07c-7.31,9.26-18.64,15.2-31.37,15.2s-24.06-5.94-31.37-15.2
					c-0.02-0.02-0.04-0.05-0.06-0.07c-5.37-6.81-8.57-15.4-8.57-24.74c0-22.09,17.9-40,40-40S335,217.905,335,239.995z"/>
			</g>
			<g>
				<g>
					<path style="fill:#8C84D9;" d="M326.37,154.805c-7.31,9.26-18.64,15.2-31.37,15.2s-24.06-5.94-31.37-15.2l21.41-5.09h19.92
						L326.37,154.805z"/>
					<path style="fill:#FC916D;" d="M294.995,161.142c-10.23,0-9.96-11.43-9.96-11.43c1.18-2.5,2.02-5.16,2.48-7.88
						c0.17-0.99,0.29-1.99,0.36-2.99c0.01,0,0.04-0.03,0.05-0.03h14.15c0.01,0,0.04,0.03,0.05,0.03c0.26,3.76,1.23,7.46,2.84,10.87
						C304.965,149.712,305.235,161.142,294.995,161.142z"/>
					<path style="fill:#211F20;" d="M297.975,141.032c-0.51,0.7-1.41,0.99-2.26,1.17c-2.71,0.56-5.56,0.44-8.2-0.37
						c0.17-0.99,0.29-1.99,0.36-2.99c0.01,0,0.04-0.03,0.05-0.03h0.25c1.12,0.54,2.35,0.86,3.56,1.1
						C293.765,140.302,295.935,140.642,297.975,141.032z"/>
					<path style="fill:#FC916D;" d="M280.35,107.076c0.039,5.784,0.398,11.566,1.074,17.311c0.467,3.969,1.136,8.058,3.317,11.408
						c2.144,3.293,5.77,5.644,9.683,6.001c3.913,0.357,8.012-1.387,10.27-4.602c1.722-2.452,2.313-5.506,2.728-8.474
						c0.974-6.964,1.21-14.031,0.703-21.045C298.786,106.535,289.75,106.714,280.35,107.076z"/>
					<path style="fill:#6B311A;" d="M280.539,119.041c0.355,0.398,1.048,0.291,1.427-0.084c0.379-0.376,0.519-0.925,0.62-1.449
						c0.352-1.818,0.431-3.689,0.234-5.531c6.798,3.083,15.131,2.637,21.772-0.773c-0.147,2.968,0.885,6.098,2.685,8.463
						c1.031-0.015,1.671-0.876,2.102-1.813c1.458-3.162,1.879-6.793,1.184-10.205c-0.151-0.744-0.389-1.531-0.988-1.996
						c-0.6-0.465-1.657-0.382-1.936,0.324c0.328-2.411-0.738-5.023-2.355-6.841s-3.855-3.009-6.198-3.667
						c-2.343-0.658-4.799-0.811-7.232-0.8c-2.435,0.011-4.971,0.212-7.073,1.442c-1.666,0.975-2.955,2.577-3.55,4.413
						c-0.595,1.836-0.492,3.89,0.285,5.657c-0.439-0.696-1.563-0.855-2.348-0.607c-0.785,0.248-1.387,0.915-1.716,1.67
						c-0.329,0.754-0.414,1.592-0.429,2.415C276.968,112.988,278.323,116.557,280.539,119.041z"/>
					<path style="fill:#FC916D;" d="M314.095,123.665c0,3.154-2.557,5.711-5.711,5.711c-3.154,0-5.711-2.557-5.711-5.711
						c0-3.154,2.557-5.711,5.711-5.711C311.538,117.954,314.095,120.511,314.095,123.665z"/>
					<path style="fill:#FC916D;" d="M287.356,123.304c0,3.154-2.557,5.711-5.711,5.711c-3.154,0-5.711-2.557-5.711-5.711
						s2.557-5.711,5.711-5.711C284.799,117.593,287.356,120.15,287.356,123.304z"/>
				</g>
				<g>
					<g>
						
							<path style="fill:none;stroke:#231F20;stroke-width:0.4256;stroke-linecap:round;stroke-linejoin:round;stroke-miterlimit:10;" d="
							M293.192,120.753c-0.011,1.708-0.408,3.412-1.153,4.949c-0.412-0.235-1.047-0.16-1.372,0.185
							c-0.326,0.345-0.423,0.869-0.308,1.329c0.115,0.46,0.42,0.858,0.794,1.149c0.374,0.291,0.816,0.484,1.265,0.637"/>
						<path style="fill:#231F20;" d="M298.098,122.095c0.028,0.772,0.512,1.382,1.08,1.361c0.569-0.021,1.007-0.663,0.979-1.436
							c-0.028-0.772-0.512-1.381-1.08-1.361C298.509,120.68,298.07,121.323,298.098,122.095z"/>
						<path style="fill:#231F20;" d="M288.209,122.492c0.028,0.772,0.512,1.382,1.08,1.361c0.569-0.021,1.007-0.663,0.979-1.436
							c-0.028-0.772-0.512-1.382-1.08-1.361C288.619,121.077,288.181,121.72,288.209,122.492z"/>
					</g>
					
						<path style="fill:none;stroke:#231F20;stroke-width:0.4256;stroke-linecap:round;stroke-linejoin:round;stroke-miterlimit:10;" d="
						M295.283,132.93c0.903,0.704,2.178,0.901,3.252,0.501c1.074-0.4,1.909-1.382,2.132-2.506"/>
					<path style="fill:#211F20;" d="M295.936,118.278c0.159,0.072,0.342,0.053,0.516,0.035c2.184-0.227,4.404-0.116,6.554,0.33
						c0.054-0.542-0.218-1.085-0.631-1.441c-0.413-0.355-0.951-0.54-1.491-0.614c-0.54-0.073-1.088-0.042-1.633-0.011
						c-1.043,0.06-2.109,0.061-3.146,0.183c-0.323,0.038-0.492,0.14-0.533,0.477C295.53,117.586,295.563,118.109,295.936,118.278z"
						/>
					<path style="fill:#211F20;" d="M292.229,118.265c-0.153,0.084-0.337,0.078-0.512,0.073c-2.195-0.063-4.4,0.214-6.511,0.819
						c-0.094-0.537,0.136-1.099,0.522-1.484c0.385-0.385,0.908-0.61,1.441-0.724c0.533-0.113,1.082-0.123,1.627-0.133
						c1.044-0.018,2.107-0.097,3.151-0.053c0.324,0.014,0.501,0.103,0.567,0.436C292.582,117.545,292.589,118.069,292.229,118.265z"
						/>
				</g>
				<path style="fill:none;stroke:#211F20;stroke-linecap:round;stroke-linejoin:round;stroke-miterlimit:10;" d="M335,129.995
					c0,9.34-3.2,17.93-8.57,24.74c-0.02,0.02-0.04,0.05-0.06,0.07c-7.31,9.26-18.64,15.2-31.37,15.2s-24.06-5.94-31.37-15.2
					c-0.02-0.02-0.04-0.05-0.06-0.07c-5.37-6.81-8.57-15.4-8.57-24.74c0-22.09,17.9-40,40-40S335,107.905,335,129.995z"/>
			</g>
			<g>
				<g>
					<path style="fill:#FFCF2E;" d="M326.37,374.805c-7.31,9.26-18.64,15.2-31.37,15.2s-24.06-5.94-31.37-15.2l21.41-5.09h19.92
						L326.37,374.805z"/>
					<path style="fill:#49316B;" d="M287.668,347.738c0.593,2.587,1.043,5.426-0.154,7.795c-1.016,2.011-3.043,3.303-5.078,4.268
						c-2.036,0.965-4.206,1.724-5.98,3.113c-1.774,1.389-3.116,3.624-2.677,5.833c-1.882-2.301-2.94-5.261-2.942-8.234
						s1.05-5.935,2.927-8.239c1.093-1.341,2.446-2.457,3.492-3.836c1.045-1.379,1.776-3.155,1.342-4.83
						C281.692,344.677,284.734,346.283,287.668,347.738z"/>
					<path style="fill:#FC916D;" d="M294.995,381.142c-10.23,0-9.96-11.43-9.96-11.43c1.18-2.5,2.02-5.16,2.48-7.88
						c0.17-0.99,0.29-1.99,0.36-2.99c0.01,0,0.04-0.03,0.05-0.03h14.15c0.01,0,0.04,0.03,0.05,0.03c0.26,3.76,1.23,7.46,2.84,10.87
						C304.965,369.712,305.235,381.142,294.995,381.142z"/>
					<path style="fill:#211F20;" d="M297.975,361.032c-0.51,0.7-1.41,0.99-2.26,1.17c-2.71,0.56-5.56,0.44-8.2-0.37
						c0.17-0.99,0.29-1.99,0.36-2.99c0.01,0,0.04-0.03,0.05-0.03h0.25c1.12,0.54,2.35,0.86,3.56,1.1
						C293.765,360.302,295.935,360.642,297.975,361.032z"/>
					<path style="fill:#FC916D;" d="M280.35,327.076c0.039,5.784,0.398,11.566,1.074,17.311c0.467,3.969,1.136,8.058,3.317,11.408
						c2.144,3.293,5.77,5.644,9.683,6.001c3.913,0.357,8.012-1.387,10.27-4.602c1.722-2.452,2.313-5.506,2.728-8.474
						c0.974-6.964,1.21-14.031,0.703-21.045C298.786,326.535,289.75,326.714,280.35,327.076z"/>
					<path style="fill:#FC916D;" d="M314.095,343.665c0,3.154-2.557,5.711-5.711,5.711c-3.154,0-5.711-2.557-5.711-5.711
						c0-3.154,2.557-5.711,5.711-5.711C311.538,337.954,314.095,340.511,314.095,343.665z"/>
					<path style="fill:#FC916D;" d="M287.356,343.304c0,3.154-2.557,5.711-5.711,5.711c-3.154,0-5.711-2.557-5.711-5.711
						c0-3.154,2.557-5.711,5.711-5.711C284.799,337.593,287.356,340.15,287.356,343.304z"/>
					<path style="fill:#49316B;" d="M310.55,338.385c-0.67-0.28-1.4-0.43-2.17-0.43c-0.65,0-1.28,0.11-1.86,0.32
						c-0.52-2.1-2.13-3.94-4.2-4.61c-1.86-0.61-3.87-0.33-5.82-0.39c-3.83-0.11-7.53-1.91-10.42-4.42c0.27,3.19-0.56,6.45-2.22,9.19
						c-0.68-0.29-1.43-0.45-2.22-0.45c-1.05,0-2.03,0.28-2.87,0.78c-1.62-3.29-2.63-6.89-2.72-10.53c-0.03-1.15,0.02-2.33,0.41-3.41
						c0.38-1.09,1.14-2.09,2.2-2.54c1.06-0.46,2.43-0.25,3.16,0.65c-0.03-2.51,1.44-4.8,3.34-6.45c4.03-3.49,10.05-4.33,15.04-2.45
						c4.99,1.88,8.87,6.26,10.54,11.33C312.18,329.335,311.94,334.025,310.55,338.385z"/>
				</g>
				<g>
					<g>
						
							<path style="fill:none;stroke:#231F20;stroke-width:0.4256;stroke-linecap:round;stroke-linejoin:round;stroke-miterlimit:10;" d="
							M293.746,340.828c-0.012,1.708-0.408,3.412-1.152,4.949c-0.412-0.236-1.047-0.16-1.372,0.185
							c-0.326,0.345-0.423,0.869-0.308,1.329c0.115,0.46,0.42,0.858,0.794,1.149c0.374,0.291,0.816,0.484,1.265,0.637"/>
						<path style="fill:#231F20;" d="M298.653,342.17c0.028,0.772,0.512,1.382,1.08,1.361c0.569-0.021,1.007-0.664,0.979-1.436
							c-0.028-0.772-0.512-1.381-1.08-1.361C299.064,340.755,298.625,341.398,298.653,342.17z"/>
						<path style="fill:#231F20;" d="M288.764,342.567c0.028,0.772,0.512,1.382,1.08,1.361c0.569-0.021,1.007-0.663,0.979-1.436
							c-0.028-0.772-0.512-1.382-1.08-1.361C289.174,341.152,288.736,341.795,288.764,342.567z"/>
					</g>
					<path style="fill:#231F20;" d="M296.02,337.509c-0.223-0.79-0.066-1.679,0.414-2.345c2.944-0.066,5.993,1.277,7.986,3.445
						C303.965,339.424,298.816,337.57,296.02,337.509z"/>
					<path style="fill:#231F20;" d="M292.356,336.942c-0.002-0.821-0.396-1.632-1.04-2.142c-2.849,0.741-5.415,2.867-6.74,5.497
						C285.237,340.956,289.684,337.765,292.356,336.942z"/>
					
						<path style="fill:none;stroke:#231F20;stroke-width:0.4256;stroke-linecap:round;stroke-linejoin:round;stroke-miterlimit:10;" d="
						M292.883,353.684c1.695-0.075,3.389-0.15,5.084-0.224"/>
				</g>
				<path style="fill:none;stroke:#211F20;stroke-linecap:round;stroke-linejoin:round;stroke-miterlimit:10;" d="M335,349.995
					c0,9.34-3.2,17.93-8.57,24.74c-0.02,0.02-0.04,0.05-0.06,0.07c-7.31,9.26-18.64,15.2-31.37,15.2s-24.06-5.94-31.37-15.2
					c-0.02-0.02-0.04-0.05-0.06-0.07c-5.37-6.81-8.57-15.4-8.57-24.74c0-22.09,17.9-40,40-40S335,327.905,335,349.995z"/>
			</g>
		</g>
	</g>
	<g>
		<g>
			<path style="fill:#211F20;" d="M195.457,435.646c0,0,3.104,3.785,2.291,7.905s-4.715,6.45-11.274,6.45
				s-11.264-2.072-15.068-2.005c-3.087,0.054-6.829,2.005-12.412,2.005s-11.111-2.385-11.111-4.499s-0.07-8.093,1.753-9.385
				C151.461,434.824,195.457,435.646,195.457,435.646z"/>
			<path style="fill:#FC916D;" d="M167.26,403.605c-0.25,4.04-1.33,8.64-1.58,12.68c-2.64,2.41-6.72,3.44-10.06,2.16
				c-0.49-2.72-1.27-5.66-1.84-8.57c-0.17-0.86-0.32-1.71-0.44-2.56c-0.16-1.15-0.26-2.28-0.27-3.38
				C157.1,403.275,163.2,403.185,167.26,403.605z"/>
			<path style="fill:#FFFFFF;" d="M149.637,436.116c-0.67-6.39-0.309-12.886,1.063-19.163c0.19-0.871,0.412-1.764,0.938-2.483
				c0.527-0.72,1.435-1.231,2.305-1.035c0.96,0.216,1.539,1.159,2.233,1.856c1.745,1.753,4.787,2.006,6.798,0.565
				c1.368-0.98,2.475-2.693,4.157-2.639c0.923,0.03,1.743,0.633,2.303,1.367c0.56,0.734,0.913,1.6,1.336,2.42
				c1.253,2.433,3.168,4.521,5.483,5.98c2.267,1.428,4.858,2.239,7.409,3.057c2.551,0.818,5.134,1.676,7.349,3.184
				c2.215,1.507,4.053,3.77,4.446,6.421c-2.005,2.853-4.861,5.088-8.213,6.047s-7.03,0.733-10.24-0.628
				c-2.113-0.896-4.131-2.291-6.426-2.308c-1.708-0.013-3.311,0.749-4.946,1.243C160.285,441.618,153.759,439.889,149.637,436.116z"
				/>
			<path style="fill:#211F20;" d="M135.582,435.646c0,0,3.104,3.785,2.291,7.905c-0.813,4.119-4.715,6.45-11.274,6.45
				c-6.558,0-11.264-2.072-15.067-2.005c-3.087,0.054-6.829,2.005-12.412,2.005c-5.583,0-11.111-2.385-11.111-4.499
				s-0.07-8.093,1.753-9.385C91.586,434.824,135.582,435.646,135.582,435.646z"/>
			<path style="fill:#FC916D;" d="M107.88,403.935c-0.25,4.04-1.83,8.31-2.08,12.35c-2.63,2.41-6.72,3.44-10.06,2.16
				c-0.49-2.75-1.39-5.46-2.04-8.2c-0.23-0.97-0.43-1.94-0.57-2.93c-0.13-0.89-0.21-1.79-0.22-2.69
				C96.94,403.965,103.82,403.515,107.88,403.935z"/>
			<g>
				<path style="fill:#211F20;" d="M166.37,407.315l-12.59,2.56c-0.17-0.86-0.32-1.71-0.44-2.56H166.37z"/>
				<path style="fill:#211F20;" d="M106.41,407.315l-12.71,2.93c-0.23-0.97-0.43-1.94-0.57-2.93H106.41z"/>
			</g>
			<path style="fill:#FFFFFF;" d="M89.762,436.116c-0.67-6.39-0.309-12.886,1.063-19.163c0.19-0.871,0.412-1.764,0.938-2.483
				c0.527-0.72,1.435-1.231,2.305-1.035c0.96,0.216,1.539,1.159,2.233,1.856c1.745,1.753,4.787,2.006,6.798,0.565
				c1.368-0.98,2.475-2.693,4.157-2.639c0.923,0.03,1.743,0.633,2.303,1.367c0.56,0.734,0.913,1.6,1.336,2.42
				c1.253,2.433,3.168,4.521,5.483,5.98c2.267,1.428,4.858,2.239,7.409,3.057c2.551,0.818,5.134,1.676,7.349,3.184
				c2.215,1.507,4.053,3.77,4.446,6.421c-2.004,2.853-4.861,5.088-8.213,6.047c-3.352,0.959-7.03,0.733-10.24-0.628
				c-2.113-0.896-4.131-2.291-6.426-2.308c-1.708-0.013-3.311,0.749-4.946,1.243C100.41,441.618,93.883,439.889,89.762,436.116z"/>
			<path style="fill:#5B4D7D;" d="M110.911,407.32H91.393c-1.374-16.711-5.295-33.134-6.649-49.846
				c-1.354-16.712-0.441-34.561,8.1-48.99c-5.789-12.978-2.494-28.309-6.59-41.917c-1.271-4.225-3.24-8.219-4.428-12.468
				c-1.951-6.981-1.72-14.429-0.376-21.552c1.344-7.123,3.766-13.992,6.18-20.827c6.269-4.264,14.033-6.202,21.613-6.046
				c7.58,0.157,15.092,2.728,21.179,7.248c0.091,34.397-5.372,65.657-9.143,99.847C119.737,326.766,115.187,376.967,110.911,407.32z
				"/>
			<path style="fill:#5B4D7D;" d="M150.464,407.32h18.68c3.871-32.145,12.325-66.037,7.581-98.065
				c-5.074-34.254-13.897-67.951-26.26-100.295c-5.989,1.304-12.062,3.378-17.63,5.94c-5.567,2.563-10.718,6.36-13.965,11.558
				c-3.248,5.198-4.373,11.911-2.063,17.588c9.537,23.432,17.825,47.359,34.262,66.59c-5.591,6.078-8.582,15.078-9.4,23.296
				c-0.818,8.218,0.136,16.498,1.089,24.702C144.605,374.536,148.616,391.417,150.464,407.32z"/>
			<path style="fill:#FFC454;" d="M109.207,141.635c-6.703,0.744-19.552,4.587-21.318,6.193c-1.766,1.606-1.044,19.992,1.927,31.795
				c2.971,11.803-2.409,32.196-2.409,32.196c10.069,12.514,53.895,13.688,64.794-0.883c2.404-7.401-6.651-60.059-7.626-65.911
				c-3.622-1.532-14.27-2.735-14.27-2.735L109.207,141.635z"/>
			<path style="fill:#FC916D;" d="M172.767,205.134c1.542,0.788,3.477,0.397,4.929-0.546c1.452-0.943,2.522-2.359,3.551-3.752
				c10.683-14.46,19.938-30.155,28.504-45.961c3.181-0.853,6.012-3.202,7.089-6.314c1.078-3.112,0.411-7.085-2.176-9.123
				c2.089-2.837,4.178-5.675,6.268-8.512c0.447-0.607,0.899-1.458,0.436-2.053c-0.266-0.342-0.759-0.439-1.183-0.349
				c-0.424,0.091-0.797,0.335-1.157,0.577c-3.361,2.254-6.666,4.631-9.724,7.282c-1.57,1.361-2.727,3.146-3.596,5.034
				c-0.869,1.887-1.467,3.886-2.061,5.877c-11.547,9.439-20.891,19.304-29.383,31.564c-2.893,4.176-3.284,11.671-3.644,16.738
				C170.384,198.923,169.798,203.617,172.767,205.134z"/>
			<path style="fill:#FFC454;" d="M149.434,180.329c2.527,5.306,6.051,10.135,10.334,14.16c-0.53,1.942-0.303,4.14,0.8,5.824
				c1.103,1.684,2.95,2.862,4.942,3.151c-0.027,1.782,1.08,3.383,2.808,3.82s3.699-0.449,4.521-2.03
				c-1.272-8.184-0.972-16.601,0.896-24.67c0.396-1.177,0.776-2.239,0.64-3.231c-0.135-0.992-0.51-1.485-1.421-1.902
				c-0.818-0.374-1.779-0.357-2.636-0.083c-6.934-11.203-15.804-21.695-25.743-30.343
				C143.204,156.892,144.298,169.545,149.434,180.329z"/>
			<path style="fill:#FC916D;" d="M101.916,238.086c-1.597,2.916-3.615,5.408-6.047,7.675c-16.745-12.3-31.71-27.259-43.386-44.444
				c6.001-4.845,15.001-6.28,21.882-2.795c3.431,1.737,5.542,4.993,7.556,8.269c3.95,6.425,7.899,12.849,11.849,19.274
				C96.294,230.17,99.393,233.981,101.916,238.086z"/>
			<path style="fill:#FFC454;" d="M89.928,180.098c-5.039,4.975-9.026,8.63-14.561,13.312c0.549,0.536,1.107,1.085,1.451,1.771
				c0.343,0.686,0.438,1.545,0.047,2.205c-0.247,0.418-0.664,0.716-1.112,0.903c-0.448,0.188-0.999,0.354-1.468,0.229
				c-7.295-1.936-15.258-0.962-21.802,2.799c-1.435-0.528-2.469-1.997-2.483-3.526c-0.014-1.529,0.986-3.032,2.41-3.587
				c-0.788-1.645-0.718-3.673,0.18-5.261c0.899-1.587,2.497-2.887,4.313-3.058c6.249-15.661,17.133-29.161,31.307-38.295
				c0.875,0.738,1.914,1.716,2.347,2.776C94.03,158.857,96.455,173.654,89.928,180.098z"/>
			<g>
				<path style="fill:#FC916D;" d="M121.634,153.76c-5.235,0-9.976-5.62-12.427-12.124c2.375-3.609,4.476-17.05,4.119-23.094
					l14.234,11.424c-0.008,0.162-0.017,0.34-0.017,0.536c-0.008,1.43,0.187,3.439,0.69,5.78c0.366,1.652,1.349,4.11,2.073,6.008
					C130.977,147.501,126.87,153.76,121.634,153.76z"/>
				<path style="fill:#211F20;" d="M128.232,136.283c-5.321-2.665-9.441-7.653-10.999-13.399c3.048,2.945,6.632,5.423,10.309,7.619
					C127.534,131.932,127.729,133.941,128.232,136.283z"/>
				<path style="fill:#FC916D;" d="M115.319,100.237c3.883-1.879,8.276-2.691,12.574-2.323c4.298,0.368,8.485,2.214,11.993,4.726
					c1.32,7.007,1.847,14.164,1.565,21.289c-0.091,2.312-0.325,4.776-1.763,6.588c-0.989,1.247-2.468,2.047-4.016,2.415
					c-1.548,0.368-3.168,0.331-4.746,0.125c-6.557-0.86-13.646-6.083-17.146-11.694l-0.072-5.978
					c0.096-1.392,0.192-2.785,0.288-4.177L115.319,100.237z"/>
				<path style="fill:#211F20;" d="M114.412,115.02c0.781-0.549,1.16-1.502,1.441-2.414c0.768-2.495,1.118-5.117,1.031-7.726
					c6.142,0.913,12.206,1.747,18.408,1.448c2.017-0.097,4.043-0.293,5.981-0.858c1.938-0.565,3.796-1.52,5.201-2.97
					c1.405-1.45,2.322-3.427,2.263-5.445c-0.06-2.018-1.185-4.031-2.994-4.928c-1.809-0.897-4.239-0.49-5.491,1.094
					c-0.025-1.625-0.262-3.292-1.063-4.706c-0.801-1.414-2.252-2.538-3.876-2.602c-1.41-0.055-2.766,0.689-3.717,1.732
					c-0.951,1.043-1.546,2.359-2.018,3.689c-0.405-2.494-2.938-4.444-5.453-4.198c-2.514,0.246-4.621,2.651-4.535,5.176
					c-0.855-1.623-2.926-2.412-4.711-1.987c-1.785,0.424-3.216,1.909-3.815,3.643c-0.599,1.734-0.432,3.673,0.212,5.391
					c-0.097-1.156-1.735-1.865-2.874-1.642c-1.139,0.223-2.008,1.218-2.384,2.316c-0.376,1.098-0.34,2.291-0.243,3.447
					c0.557,6.659,2.945,13.008,5.31,19.258c0.176,0.465,0.371,0.956,0.772,1.249c0.497,0.363,1.258,0.299,1.687-0.143
					c0.429-0.441,0.471-1.204,0.093-1.69C113.818,119.796,114.232,117.378,114.412,115.02z"/>
				<path style="fill:#FC916D;" d="M118.382,117.075c0,3.101-2.514,5.614-5.614,5.614c-3.101,0-5.614-2.514-5.614-5.614
					c0-3.101,2.514-5.614,5.614-5.614C115.868,111.461,118.382,113.974,118.382,117.075z"/>
				
					<path style="fill:none;stroke:#231F20;stroke-width:0.4256;stroke-linecap:round;stroke-linejoin:round;stroke-miterlimit:10;" d="
					M133.447,112.904c0.065,1.509,0.471,3.003,1.178,4.337c0.356-0.221,0.92-0.175,1.219,0.119c0.299,0.295,0.402,0.754,0.315,1.165
					c-0.086,0.41-0.344,0.771-0.665,1.041c-0.322,0.269-0.706,0.454-1.098,0.604"/>
				<path style="fill:#231F20;" d="M129.153,114.248c0,0.684-0.408,1.238-0.911,1.238c-0.503,0-0.911-0.554-0.911-1.238
					c0-0.683,0.408-1.238,0.911-1.238C128.745,113.011,129.153,113.565,129.153,114.248z"/>
				<path style="fill:#231F20;" d="M137.907,114.281c0,0.684-0.408,1.238-0.911,1.238c-0.503,0-0.911-0.554-0.911-1.238
					c0-0.683,0.408-1.237,0.911-1.237C137.499,113.044,137.907,113.598,137.907,114.281z"/>
				<path style="fill:#231F20;" d="M127.603,110.863c0.875-0.174,1.773-0.174,2.662-0.244c0.287-0.023,0.605-0.069,0.786-0.292
					c0.139-0.171,0.163-0.404,0.176-0.623c0.018-0.29,0.024-0.596-0.106-0.856c-0.169-0.339-0.546-0.538-0.923-0.58
					c-0.377-0.042-0.755,0.05-1.116,0.167c-1.127,0.365-2.173,0.976-3.044,1.778c-0.349,0.321-0.675,0.68-0.874,1.111
					c-0.063,0.137-0.114,0.285-0.108,0.436c0.003,0.086,0.042,0.296,0.147,0.321c0.105,0.025,0.214-0.144,0.279-0.206
					c0.189-0.182,0.402-0.338,0.628-0.469C126.572,111.136,127.084,110.966,127.603,110.863z"/>
				<path style="fill:#231F20;" d="M137.846,110.766c-0.875-0.174-1.773-0.174-2.662-0.244c-0.287-0.023-0.605-0.069-0.786-0.292
					c-0.139-0.171-0.163-0.404-0.176-0.624c-0.018-0.29-0.024-0.596,0.106-0.856c0.169-0.339,0.546-0.538,0.923-0.58
					s0.755,0.05,1.116,0.167c1.127,0.365,2.173,0.976,3.044,1.777c0.349,0.321,0.675,0.68,0.874,1.111
					c0.063,0.137,0.114,0.285,0.108,0.436c-0.003,0.086-0.042,0.296-0.147,0.321c-0.105,0.025-0.214-0.144-0.279-0.206
					c-0.189-0.182-0.402-0.337-0.628-0.469C138.876,111.039,138.365,110.869,137.846,110.766z"/>
				<path style="fill:#211F20;" d="M128.831,120.774c1.197,1.376,2.99,2.214,4.813,2.249c-0.205,0.65-0.796,1.221-1.437,1.453
					c-0.641,0.231-1.388,0.146-1.961-0.223c-0.534-0.344-0.898-0.906-1.119-1.502C128.906,122.156,128.92,121.403,128.831,120.774z"
					/>
			</g>
		</g>
		<g>
			<path style="fill:none;stroke:#211F20;stroke-width:0.5;stroke-linecap:round;stroke-linejoin:round;stroke-miterlimit:10;" d="
				M133.219,143.579c-0.44,3.193-1.055,6.426-2.584,9.264c-1.529,2.838-4.109,5.262-7.27,5.898
				c-3.875,0.78-7.881-1.278-10.494-4.243c-2.613-2.966-4.104-6.728-5.545-10.409"/>
			<path style="fill:none;stroke:#211F20;stroke-width:0.5;stroke-linecap:round;stroke-linejoin:round;stroke-miterlimit:10;" d="
				M90.013,147.186c5.587,9.846,5.706,22.577,0.303,32.525"/>
			<path style="fill:none;stroke:#211F20;stroke-width:0.5;stroke-linecap:round;stroke-linejoin:round;stroke-miterlimit:10;" d="
				M72.514,195.175c-6.346-1.561-12.974-1.968-19.464-1.196"/>
			<path style="fill:none;stroke:#211F20;stroke-width:0.5;stroke-linecap:round;stroke-linejoin:round;stroke-miterlimit:10;" d="
				M74.408,192.818c-5.107-3.368-10.899-5.691-16.917-6.786"/>
			<path style="fill:none;stroke:#211F20;stroke-width:0.5;stroke-linecap:round;stroke-linejoin:round;stroke-miterlimit:10;" d="
				M101.06,208.065c12.946,2.686,26.446,2.675,39.387-0.033"/>
			<path style="fill:none;stroke:#211F20;stroke-width:0.5;stroke-linecap:round;stroke-linejoin:round;stroke-miterlimit:10;" d="
				M99.989,194.319c9.825,6.949,21.8,10.811,33.833,10.91"/>
			<path style="fill:none;stroke:#211F20;stroke-width:0.5;stroke-linecap:round;stroke-linejoin:round;stroke-miterlimit:10;" d="
				M144.777,145.034c3.871,11.678,5.85,23.981,5.838,36.284"/>
			<path style="fill:none;stroke:#211F20;stroke-width:0.5;stroke-linecap:round;stroke-linejoin:round;stroke-miterlimit:10;" d="
				M169.073,185.235c-1.884,5.6-3.044,11.444-3.441,17.34"/>
			<path style="fill:none;stroke:#211F20;stroke-width:0.5;stroke-linecap:round;stroke-linejoin:round;stroke-miterlimit:10;" d="
				M169.901,175.501c-4.441,5.31-7.767,11.547-9.7,18.194"/>
			<path style="fill:none;stroke:#211F20;stroke-width:0.5;stroke-linecap:round;stroke-linejoin:round;stroke-miterlimit:10;" d="
				M106.132,227.729c-1.577,8.804-8.346,16.893-13.136,21.461"/>
			<path style="fill:none;stroke:#211F20;stroke-width:0.5;stroke-linecap:round;stroke-linejoin:round;stroke-miterlimit:10;" d="
				M95.21,246.954c-2.819,20.26-1.157,40.796,3.638,60.682c-6.052,15.422-7.772,32.272-7.161,48.828
				c0.612,16.556,3.484,32.935,6.351,49.252"/>
			<path style="fill:none;stroke:#211F20;stroke-width:0.5;stroke-linecap:round;stroke-linejoin:round;stroke-miterlimit:10;" d="
				M152.565,217.282c-17.148,10.868-39.085,13.846-58.51,7.943"/>
			<path style="fill:none;stroke:#211F20;stroke-width:0.5;stroke-linecap:round;stroke-linejoin:round;stroke-miterlimit:10;" d="
				M126.674,268.394c1.831-15.579,2.614-30.864,0.732-46.437"/>
			<path style="fill:none;stroke:#211F20;stroke-width:0.5;stroke-linecap:round;stroke-linejoin:round;stroke-miterlimit:10;" d="
				M134.051,220.984c0.791,5.339,1.128,10.746,1.007,16.142c-0.054,2.416-0.239,4.956-1.559,6.981
				c-1.046,1.604-2.717,2.72-4.497,3.427c-1.78,0.707-3.682,1.041-5.568,1.371"/>
			<path style="fill:none;stroke:#211F20;stroke-width:0.5;stroke-linecap:round;stroke-linejoin:round;stroke-miterlimit:10;" d="
				M108.462,309.24c3.089,0.951,6.412,1.135,9.587,0.531"/>
			<path style="fill:none;stroke:#211F20;stroke-width:0.5;stroke-linecap:round;stroke-linejoin:round;stroke-miterlimit:10;" d="
				M167.167,309.4c2.875,0.555,5.872,0.469,8.711-0.251"/>
			<path style="fill:none;stroke:#211F20;stroke-width:0.5;stroke-linecap:round;stroke-linejoin:round;stroke-miterlimit:10;" d="
				M157.077,310.506c-6.321,7.951-9.181,18.209-9.831,28.345c-0.649,10.136,0.757,20.28,2.16,30.339
				c1.689,12.109,3.378,24.218,5.066,36.327"/>
			<path style="fill:none;stroke:#211F20;stroke-width:0.5;stroke-linecap:round;stroke-linejoin:round;stroke-miterlimit:10;" d="
				M92.607,403.42c5.668,0.007,11.335,0.078,17.003,0.085v0.155"/>
			
				<line style="fill:none;stroke:#211F20;stroke-width:0.5;stroke-linecap:round;stroke-linejoin:round;stroke-miterlimit:10;" x1="151.346" y1="403.66" x2="168.549" y2="403.66"/>
			<path style="fill:none;stroke:#211F20;stroke-width:0.5;stroke-linecap:round;stroke-linejoin:round;stroke-miterlimit:10;" d="
				M175.34,401.804c0.484-0.746,1.248-1.556,2.105-1.32c0.485,0.134,0.828,0.591,0.962,1.076c0.134,0.485,0.095,0.999,0.046,1.5
				c-0.605,6.184-2.576,12.23-5.731,17.583c1.045-6.423,4.087-12.506,8.597-17.196c0.607-0.631,1.49-1.285,2.275-0.898
				c0.442,0.217,0.685,0.722,0.72,1.213c0.035,0.491-0.105,0.976-0.254,1.445c-1.504,4.733-4.154,9.092-7.632,12.635
				c-0.646,0.658-2.696,2.823-3.706,2.801c-1.121-0.024-0.586-2.027-0.742-2.913c-0.45-2.548-0.344-5.247,0.132-7.782
				C172.652,407.061,173.74,404.272,175.34,401.804z"/>
			<path style="fill:none;stroke:#211F20;stroke-width:0.5;stroke-linecap:round;stroke-linejoin:round;stroke-miterlimit:10;" d="
				M116.155,402.647c0.484-0.746,1.248-1.556,2.105-1.32c0.485,0.134,0.828,0.591,0.962,1.076c0.134,0.485,0.095,0.999,0.046,1.5
				c-0.605,6.184-2.576,12.23-5.731,17.583c1.045-6.423,4.087-12.506,8.597-17.196c0.607-0.631,1.49-1.285,2.275-0.898
				c0.442,0.217,0.685,0.722,0.72,1.213c0.035,0.491-0.105,0.976-0.254,1.445c-1.504,4.733-4.154,9.092-7.632,12.635
				c-0.646,0.658-2.696,2.823-3.706,2.801c-1.121-0.024-0.586-2.027-0.743-2.913c-0.45-2.548-0.343-5.247,0.132-7.782
				C113.468,407.904,114.556,405.115,116.155,402.647z"/>
			<path style="fill:none;stroke:#211F20;stroke-width:0.5;stroke-linecap:round;stroke-linejoin:round;stroke-miterlimit:10;" d="
				M155.751,441.147c-0.742-2.612-0.893-5.446-0.044-8.025c0.85-2.579,2.783-4.862,5.338-5.78c2.497-0.897,5.336-0.426,7.699,0.778
				c2.364,1.204,4.316,3.08,6.084,5.058c2.805,3.138,5.242,6.604,7.247,10.305"/>
			<path style="fill:none;stroke:#211F20;stroke-width:0.5;stroke-linecap:round;stroke-linejoin:round;stroke-miterlimit:10;" d="
				M95.026,441.147c-0.742-2.612-0.893-5.446-0.044-8.025c0.85-2.579,2.783-4.862,5.338-5.78c2.497-0.897,5.336-0.426,7.699,0.778
				c2.364,1.204,4.316,3.08,6.084,5.058c2.805,3.138,5.243,6.604,7.247,10.305"/>
		</g>
	</g>
	<g>
		<g>
			<g>
				<path style="fill:#211F20;" d="M510.575,435.646c0,0-3.104,3.785-2.291,7.905c0.813,4.119,4.715,6.45,11.273,6.45
					c6.558,0,11.265-2.072,15.068-2.005c3.087,0.054,6.829,2.005,12.412,2.005c5.583,0,11.111-2.385,11.111-4.499
					s0.07-8.093-1.753-9.385C554.57,434.824,510.575,435.646,510.575,435.646z"/>
				<path style="fill:#FC916D;" d="M552.8,403.935c-0.01,1.06-0.1,2.15-0.24,3.26c-0.46,3.76-1.51,7.69-2.15,11.25
					c-3.33,1.28-7.42,0.25-10.06-2.16c-0.12-1.99-0.53-4.12-0.94-6.25c-0.26-1.31-0.52-2.63-0.71-3.91
					c-0.13-0.86-0.23-1.7-0.28-2.52C542.47,403.185,548.77,403.275,552.8,403.935z"/>
				<path style="fill:#FFFFFF;" d="M556.394,436.116c0.67-6.39,0.309-12.886-1.063-19.163c-0.191-0.871-0.412-1.764-0.938-2.483
					c-0.527-0.72-1.435-1.231-2.305-1.035c-0.96,0.216-1.539,1.159-2.233,1.856c-1.745,1.753-4.787,2.006-6.798,0.565
					c-1.368-0.98-2.475-2.693-4.157-2.639c-0.922,0.03-1.743,0.633-2.303,1.367c-0.56,0.734-0.913,1.6-1.336,2.42
					c-1.253,2.433-3.168,4.521-5.483,5.98c-2.267,1.428-4.858,2.239-7.409,3.057c-2.551,0.818-5.134,1.676-7.349,3.184
					s-4.053,3.77-4.445,6.421c2.004,2.853,4.861,5.088,8.213,6.047c3.352,0.959,7.03,0.733,10.24-0.628
					c2.113-0.896,4.131-2.291,6.426-2.308c1.708-0.013,3.311,0.749,4.946,1.243C545.747,441.618,552.273,439.889,556.394,436.116z"
					/>
				<path style="fill:#211F20;" d="M552.56,407.195l-13.15,2.84c-0.26-1.31-0.52-2.63-0.71-3.91L552.56,407.195z"/>
			</g>
			<g>
				<path style="fill:#211F20;" d="M720.097,294.257c0,0,4.871,0.484,7.848-2.477c2.977-2.961,2.752-7.501-0.885-12.958
					c-3.637-5.457-7.971-8.225-10.025-11.426c-1.667-2.599-2.119-6.795-5.215-11.44c-3.096-4.645-8.146-7.923-9.905-6.751
					s-6.774,4.43-6.837,6.664C695.013,258.103,720.097,294.257,720.097,294.257z"/>
				<path style="fill:#FC916D;" d="M687.47,280.215c-1.05,0.8-2.08,1.75-3.1,2.74c-0.71,0.7-1.41,1.41-2.11,2.13
					c-1.41,1.4-2.81,2.78-4.26,3.88c-2.6-3.14-5.74-8.74-7.42-12.46c3.93-2.56,8.81-3.99,13.11-5.86
					C686.61,272.715,688.01,276.685,687.47,280.215z"/>
				<path style="fill:#211F20;" d="M684.37,282.955c-0.71,0.7-1.41,1.41-2.11,2.13l-0.05,0.03l-5.97-10.33L684.37,282.955z"/>
				<path style="fill:#FFFFFF;" d="M695.077,255.869c-5.689,2.986-10.895,6.889-15.356,11.512c-0.619,0.642-1.239,1.321-1.546,2.158
					c-0.307,0.837-0.229,1.877,0.417,2.492c0.713,0.679,1.817,0.638,2.783,0.829c2.426,0.48,4.324,2.871,4.24,5.343
					c-0.057,1.682-0.868,3.553,0.109,4.923c0.536,0.751,1.494,1.099,2.415,1.158c0.921,0.059,1.838-0.127,2.755-0.231
					c2.719-0.307,5.519,0.129,8.017,1.246c2.446,1.094,4.557,2.801,6.653,4.47c2.096,1.67,4.242,3.342,6.725,4.349
					c2.483,1.007,5.385,1.282,7.808,0.138c1.262-3.25,1.538-6.866,0.477-10.188c-1.061-3.321-3.289-6.257-6.201-8.173
					c-1.917-1.261-4.197-2.167-5.484-4.067c-0.958-1.414-1.213-3.17-1.708-4.805C705.56,261.677,700.502,257.206,695.077,255.869z"
					/>
			</g>
			<path style="fill:#5B4D7D;" d="M683.49,287.335c-19.02,17.55-42,30.89-66.52,39.19c-3.99,1.35-8.11,2.57-12.33,2.47
				c-4.21-0.1-8.58-1.73-11.07-5.13c-2.73-3.73-2.73-8.74-2.53-13.36c1.39-32.46,6.84-64.75,16.19-95.87
				c12.23-4.21,26.9-4.96,39.8-4.02c5.28,8.01,7.59,17.93,6.38,27.44c-1.2,9.51-5.91,18.54-13.02,24.98
				c-5.88,5.33-6.44,14.81-9.69,22.05c1.89-0.61,3.78-1.22,5.68-1.82c12.6-4.02,25.28-7.9,37.85-11.97L683.49,287.335z"/>
			<path style="fill:#5B4D7D;" d="M616.96,227.575c-4.91,16.44-12.79,31.33-19.1,47.29c-1.43,3.62-3.08,7.13-4.93,10.52v0.01
				c-1.44,2.65-3.01,5.23-4.69,7.73v0.01c-5.75,8.55-12.85,16.19-21,22.66c4,5.09,5.46,11.8,5.31,18.27
				c-0.15,6.47-1.77,12.8-3.38,19.06c-4.62,17.94-9.34,36.13-13.96,54.07h-20.64c-1.51-34.4-4.45-70.68,7.98-102.8
				c12.8-33.1,28.73-64.99,47.5-95.12c4.53-1.33,11.53-1.94,16.23-1.58c4.7,0.36,9.54,2.82,11.38,7.17
				C619.34,218.855,618.2,223.415,616.96,227.575z"/>
			<path style="fill:#BD6F57;" d="M589.71,178.385c-4.11,3.31-9.92,6.82-15,10.23c-1.51,1.02-2.96,2.03-4.27,3.02
				c-0.48,0.36-0.94,0.72-1.38,1.07c-1.58,1.28-3.23,2.59-5.2,3.11c-2.94,0.78-6.02-0.33-8.84-1.47
				c-15.49-6.26-30.1-14.14-44.23-23.04c-2.92,0.98-6.38,0.1-8.48-2.16c-2.11-2.25-2.84-5.89-1.66-8.74
				c-3.48-1.48-6.48-4.05-8.48-7.25c7.81,1.18,15.41,3.69,22.38,7.39c8.35,4.44,18.37,5.01,27.56,7.27c3.46,0.85,6.93,1.7,10.19,3.1
				c3.27,1.41,6.35,3.4,8.55,6.19c3.66-4.65,14.32-15.25,19.08-18.77C585.98,161.875,586.89,171.965,589.71,178.385z"/>
			<path style="fill:#EADFED;" d="M605.85,143.628c-3.88,0.754-6.685,0.812-10.565,1.565c-3.795,5.737-5.916,8.926-8.754,15.193
				c-2.354,5.199-4.382,11.133-2.445,16.502c1.275,3.535,4.113,6.301,5.619,9.743c1.642,3.753,1.581,8.026,1.09,12.093
				c-0.491,4.067-1.701,7.87-1.625,11.966c9.783,7.63,45.602,10.613,58.222,0.047c0,0-2.739-7.044-3.228-22.304
				c-0.489-15.261,8.125-30.462,5.581-38.054c-2.543-7.593-14.19-6.261-22.245-7.062L605.85,143.628z"/>
			<path style="fill:#211F20;" d="M603.512,98.986c-3.587,6.632-6.426,13.669-8.447,20.933c-0.362,1.302-1.433,7.052-1.378,8.402
				c0.055,1.35,0.557,2.74,1.612,3.584c1.055,0.844,2.717,0.976,3.729,0.081c0.047,1.665,0.911,3.288,2.266,4.256
				c1.355,0.968,3.17,1.259,4.761,0.764c1.013,1.999,3.698,0.405,5.92,0.695c2.222,0.29,4.651-1.964,6.143-3.636
				c1.705,1.854,3.633,5.369,6.148,5.518s5.075-0.713,6.988-2.352c1.893,0.547,3.85,1.009,5.816,0.874
				c1.966-0.135,3.966-0.947,5.14-2.53c1.325-1.787,1.904-6.548,1.767-8.769c-0.341-5.496-2.127-14.085-4.246-19.168
				c-3.014-1.26-6.227,0.984-9.275,0.179c-6.698-1.772-12.785-5.346-19.177-8.02c-1.239-0.518-2.494-1.041-3.821-1.245
				C606.129,98.348,604.151,97.804,603.512,98.986z"/>
			<g>
				<path style="fill:#CB775E;" d="M613.117,153.036c5.152,0.931,10.816-3.757,14.385-9.721c-1.695-3.974-1.373-17.574,0.054-23.458
					l-16.038,8.711c-0.02,0.161-0.044,0.338-0.079,0.531c-0.246,1.409-0.796,3.351-1.706,5.565c-0.654,1.56-2.833,7.224-3.882,8.963
					C604.262,148.635,607.965,152.105,613.117,153.036z"/>
				<path style="fill:#211F20;" d="M609.733,134.664c5.71-1.676,10.651-5.852,13.206-11.23c-3.523,2.356-7.49,4.157-11.5,5.664
					C611.193,130.508,610.643,132.45,609.733,134.664z"/>
				<path style="fill:#CB775E;" d="M628.129,101.414c-3.621-2.345-7.88-3.694-12.19-3.861c-4.31-0.167-8.694,1.147-12.485,3.206
					c-2.177,6.79-3.585,13.827-4.187,20.932c-0.195,2.305-0.268,4.779,0.934,6.755c0.827,1.359,2.196,2.336,3.686,2.893
					s3.103,0.721,4.694,0.711c6.613-0.042,14.293-4.348,18.461-9.483l0.811-5.923c0.077-1.394,0.154-2.787,0.231-4.181
					L628.129,101.414z"/>
				<path style="fill:#CB775E;" d="M622.842,117.515c-0.552,3.051,1.475,5.972,4.526,6.523c3.051,0.551,5.972-1.475,6.523-4.526
					c0.551-3.051-1.475-5.972-4.526-6.523C626.314,112.437,623.393,114.464,622.842,117.515z"/>
				
					<path style="fill:none;stroke:#231F20;stroke-width:0.4256;stroke-linecap:round;stroke-linejoin:round;stroke-miterlimit:10;" d="
					M608.759,110.731c-0.332,1.473-0.997,2.871-1.93,4.059c-0.311-0.281-0.874-0.336-1.221-0.099
					c-0.346,0.237-0.529,0.671-0.517,1.09c0.012,0.419,0.201,0.82,0.47,1.143c0.269,0.322,0.614,0.572,0.973,0.789"/>
				<path style="fill:#231F20;" d="M612.745,112.818c-0.122,0.673,0.181,1.29,0.677,1.38c0.495,0.09,0.995-0.383,1.117-1.056
					c0.122-0.673-0.181-1.29-0.677-1.38C613.367,111.673,612.867,112.145,612.745,112.818z"/>
				<path style="fill:#231F20;" d="M604.125,111.293c-0.122,0.673,0.181,1.29,0.677,1.38c0.495,0.09,0.995-0.383,1.117-1.056
					c0.122-0.673-0.181-1.29-0.677-1.38C604.746,110.148,604.246,110.62,604.125,111.293z"/>
				<path style="fill:#231F20;" d="M614.872,109.762c-0.83-0.327-1.714-0.487-2.577-0.714c-0.278-0.073-0.583-0.175-0.722-0.427
					c-0.106-0.192-0.088-0.427-0.063-0.645c0.034-0.289,0.082-0.59,0.256-0.824c0.227-0.304,0.633-0.432,1.011-0.407
					c0.378,0.025,0.734,0.184,1.068,0.363c1.044,0.559,1.965,1.346,2.679,2.291c0.286,0.378,0.543,0.789,0.662,1.248
					c0.038,0.146,0.061,0.3,0.029,0.448c-0.018,0.084-0.094,0.284-0.202,0.289c-0.108,0.005-0.185-0.179-0.238-0.253
					c-0.154-0.212-0.336-0.404-0.535-0.574C615.838,110.214,615.365,109.956,614.872,109.762z"/>
				<path style="fill:#231F20;" d="M604.81,107.845c0.892-0.016,1.776,0.144,2.664,0.233c0.286,0.029,0.607,0.04,0.826-0.148
					c0.167-0.143,0.232-0.369,0.284-0.582c0.069-0.283,0.13-0.582,0.048-0.861c-0.106-0.364-0.442-0.627-0.805-0.735
					s-0.752-0.085-1.128-0.034c-1.173,0.159-2.312,0.574-3.312,1.208c-0.4,0.254-0.785,0.549-1.057,0.938
					c-0.087,0.124-0.162,0.26-0.184,0.41c-0.012,0.086-0.012,0.299,0.088,0.342c0.099,0.043,0.236-0.103,0.311-0.153
					c0.218-0.145,0.456-0.261,0.702-0.35C603.747,107.93,604.281,107.854,604.81,107.845z"/>
			</g>
			<path style="fill:#211F20;" d="M626.391,131.858c-0.01-0.02-0.01-0.04-0.02-0.06c0.04-2.71,0.22-5.48,0.5-7.87
				c0.16,0.04,0.33,0.08,0.5,0.11c3.05,0.55,5.97-1.48,6.52-4.53c0.55-3.05-1.47-5.97-4.53-6.52c-1.86-0.34-3.67,0.29-4.92,1.52
				c0.11-2.68,0.4-5.34,0.89-7.97c-0.96,0.39-2.05,0.23-2.94-0.3c-0.9-0.53-1.63-1.51-1.76-2.55c-1.41,0.51-2.84,1.03-4.34,1.13
				s-2.68-0.43-3.77-1.47c-1.05,0.65-2.35,0.88-3.55,0.63c-1.21-0.25-2.25-1.19-2.96-2.2c-0.65,0.83-1.93,1-2.87,0.52
				c-0.94-0.48-1.54-1.49-1.69-2.54c-0.15-1.04,0.08-2.11,0.47-3.09c1.44-3.6,4.89-6.13,8.62-7.16c3.73-1.04,7.71-0.73,11.5,0.09
				c1.93,0.42,3.82,0.96,5.72,1.51c1.01,0.29,2.05,0.59,2.89,1.22c0.84,0.62,1.56,1.5,1.41,2.54c1.64,0.06,3.12,1.12,4.06,2.47
				c0.95,1.34,4.36,10.909,4.933,14.047C642.691,120.348,627.991,131.998,626.391,131.858z"/>
			<path style="fill:#FFFFFF;" d="M611.763,123.258c1.13-0.134,2.2-0.711,2.934-1.581c0.269-0.319,0.503-0.741,0.37-1.137
				c-0.17-0.504-0.868-0.646-1.347-0.414c-0.479,0.232-0.783,0.707-1.063,1.159c0.018-0.029-2.011-0.219-2.218-0.2
				c-0.539,0.05-1.333,0.129-1.538,0.735C608.432,123.209,610.978,123.351,611.763,123.258z"/>
			<path style="fill:#211F20;" d="M574.71,188.615c-1.51,1.02-2.96,2.03-4.27,3.02l-10.55-8.22L574.71,188.615z"/>
			<path style="fill:#EADFED;" d="M595.419,145.31c-7.716,2.455-14.598,7.462-19.308,14.048c-0.966-0.442-2.27-0.12-3,0.652
				c-0.729,0.772-0.899,2.019-0.403,2.958c-0.997-0.223-2.522,0.243-3.035,1.126c-0.513,0.883-0.383,2.093,0.305,2.847
				c4.598,5.042,9.882,9.85,16.543,11.33C592.611,168.347,595.518,156.954,595.419,145.31z"/>
			<path style="fill:#CB775E;" d="M627.604,185.398c-2.101-6.44-5.008-12.726-8.445-18.563c-7.12,3.01-13.122,8.625-17.058,15.278
				c-1.339-2.448-3.718-4.196-6.283-5.295c-2.565-1.099-5.335-1.616-8.078-2.124c-11.192-2.074-22.454-4.241-33.646-6.315
				c-1.779-2.647-4.896-4.715-7.657-6.311c-3.859-2.231-7.459-4.078-11.318-6.309c-0.406-0.235-0.921-0.47-1.316-0.218
				c-0.508,0.324-0.332,1.1-0.074,1.645c1.533,3.239,3.887,6.086,6.78,8.201c-1.849,3.348-1.132,7.953,1.485,10.742
				c2.067,2.202,5.059,3.231,7.925,4.182c14.337,4.756,27.965,11.557,42.05,17.017c4.083,1.583,8.299,3.19,12.678,3.086
				c4.518-0.108,8.837-2.06,12.48-4.734C620.771,193.006,624.575,188.752,627.604,185.398z"/>
			<path style="fill:#DCC7E0;" d="M621.934,162.355c-0.994-0.131-2.037,0.161-2.819,0.788c-0.782,0.627-1.31,1.551-1.399,2.55
				c-1.151-0.384-2.483-0.175-3.461,0.543c-0.978,0.718-1.577,1.926-1.556,3.139c6.343,5.222,10.645,12.949,11.736,21.092
				c1.172,0.407,2.648,0.341,3.805-0.105c1.158-0.446,2.148-1.313,2.744-2.401c1.708-0.388,3.341-2,3.768-3.698
				c1.129-4.496,0.075-9.269-2.221-13.296C630.236,166.94,626.53,162.96,621.934,162.355z"/>
			<path style="fill:#211F20;" d="M636.38,283.265c-1.48,5.2-4.55,9.75-8.74,13.22c1.52-3.6,2.58-7.51,3.06-11.4
				C632.59,284.475,634.48,283.865,636.38,283.265z"/>
		</g>
		<g>
			<path style="fill:none;stroke:#211F20;stroke-width:0.5;stroke-linecap:round;stroke-linejoin:round;stroke-miterlimit:10;" d="
				M606.36,216.515c-7.587,22.562-10.939,44.279-13.43,68.88"/>
			<path style="fill:none;stroke:#211F20;stroke-width:0.5;stroke-linecap:round;stroke-linejoin:round;stroke-miterlimit:10;" d="
				M631.818,217.855c2.24,1.947,2.688,5.346,1.971,8.226c-0.718,2.88-2.388,5.411-3.853,7.993c-1.465,2.582-2.777,5.408-2.66,8.374
				c0.103,2.59,1.294,5.063,1.265,7.654c-0.083,7.36-9.492,11.86-10.011,19.202c-0.371,5.251,4.044,10.051,3.348,15.269
				c-0.473,3.548-3.182,6.312-4.952,9.423c-3.116,5.477-3.248,12.539-0.337,18.128c-0.34-2.161,2.047-4.179,4.022-5.121
				c1.975-0.941,4.233-1.017,6.418-1.137c2.184-0.12,4.461-0.331,6.318-1.488c3.057-1.904,4.422-6.024,7.765-7.362
				c3.892-1.559,8.825,1.364,12.311-0.964c1.694-1.131,2.582-3.284,4.42-4.161c1.734-0.827,3.779-0.28,5.695-0.421
				c2.317-0.17,4.422-1.352,6.438-2.506c3.135-1.794,6.271-3.588,9.407-5.383"/>
			<path style="fill:none;stroke:#211F20;stroke-width:0.5;stroke-linecap:round;stroke-linejoin:round;stroke-miterlimit:10;" d="
				M669.128,274.57c4.287,4.235,7.601,9.449,9.614,15.129"/>
			<path style="fill:none;stroke:#211F20;stroke-width:0.5;stroke-linecap:round;stroke-linejoin:round;stroke-miterlimit:10;" d="
				M535.381,402.06c6.23,1.336,12.607,1.984,18.979,1.929"/>
			<path style="fill:none;stroke:#211F20;stroke-width:0.5;stroke-linecap:round;stroke-linejoin:round;stroke-miterlimit:10;" d="
				M551.247,406.72c-0.167-3.367-0.333-6.734-0.5-10.101c-0.17-3.428-0.328-6.945,0.731-10.209
				c1.841-5.674,7.252-10.372,6.705-16.312c-0.292-3.175-2.326-6.122-1.997-9.293c0.53-5.11,6.822-8.139,7.386-13.246
				c0.373-3.381-1.93-6.526-2.056-9.925c-0.11-2.978,1.448-5.738,2.077-8.651c1.027-4.757-0.636-10.002-4.216-13.298
				c2.318,0.703,4.983-1.57,6.098-3.719c1.115-2.15,1.286-4.643,1.766-7.017c0.48-2.374,1.432-4.869,3.505-6.122
				c2.467-1.49,6.074-0.945,7.896-3.178c1.706-2.091,0.711-5.172,0.899-7.865c0.335-4.79,5.41-8.669,10.12-7.735"/>
			<path style="fill:none;stroke:#211F20;stroke-width:0.5;stroke-linecap:round;stroke-linejoin:round;stroke-miterlimit:10;" d="
				M586.116,216.486c9.633,4.423,20.275,6.467,30.874,6.563s21.164-1.723,31.323-4.749"/>
			<path style="fill:none;stroke:#211F20;stroke-width:0.5;stroke-linecap:round;stroke-linejoin:round;stroke-miterlimit:10;" d="
				M601.09,217.033c-1.283,5.166-2.566,10.332-3.849,15.498c-0.418,1.681-0.837,3.433-0.478,5.127
				c0.359,1.695,1.745,3.306,3.477,3.316"/>
			<path style="fill:none;stroke:#211F20;stroke-width:0.5;stroke-linecap:round;stroke-linejoin:round;stroke-miterlimit:10;" d="
				M617.893,165.861c4.427,3.02,8.033,7.231,10.335,12.07"/>
			<path style="fill:none;stroke:#211F20;stroke-width:0.5;stroke-linecap:round;stroke-linejoin:round;stroke-miterlimit:10;" d="
				M621.109,162.266c2.609-3.124,5.226-6.253,8.17-9.063c2.944-2.81,6.236-5.305,9.943-6.984"/>
			<path style="fill:none;stroke:#211F20;stroke-width:0.5;stroke-linecap:round;stroke-linejoin:round;stroke-miterlimit:10;" d="
				M644.089,173.917c-2.432,4.244-5.648,8.038-9.437,11.132"/>
			<path style="fill:none;stroke:#211F20;stroke-width:0.5;stroke-linecap:round;stroke-linejoin:round;stroke-miterlimit:10;" d="
				M572.964,163.061c3.478,2.826,6.361,6.38,8.41,10.366"/>
			<path style="fill:none;stroke:#211F20;stroke-width:0.5;stroke-linecap:round;stroke-linejoin:round;stroke-miterlimit:10;" d="
				M594.57,146.334c-2.032,3.565-4.064,7.129-6.096,10.694c-1.477,2.59-2.96,5.194-4.01,7.984c-1.05,2.79-1.658,5.8-1.317,8.762"/>
			<path style="fill:none;stroke:#211F20;stroke-width:0.5;stroke-linecap:round;stroke-linejoin:round;stroke-miterlimit:10;" d="
				M576.306,159.484c2.064,1.556,3.89,3.427,5.393,5.53"/>
			<path style="fill:none;stroke:#211F20;stroke-width:0.5;stroke-linecap:round;stroke-linejoin:round;stroke-miterlimit:10;" d="
				M597.908,204.201c9.606,2.985,20.3,2.317,29.46-1.84"/>
			<path style="fill:none;stroke:#211F20;stroke-width:0.5;stroke-linecap:round;stroke-linejoin:round;stroke-miterlimit:10;" d="
				M687.031,289.312c-1.023,1.143-1.966,2.38-2.595,3.78c-0.628,1.4-0.926,2.981-0.63,4.486c0.173,0.879,0.667,1.822,1.542,2.013
				c0.537,0.118,1.104-0.086,1.54-0.42c0.436-0.335,0.762-0.789,1.073-1.242c2.592-3.774,4.601-7.946,5.936-12.326
				c0.169-0.556,0.284-1.267-0.172-1.626c-1.445,5.012-1.014,10.541,1.189,15.269c0.215,0.461,0.511,0.966,1.01,1.066
				c0.405,0.081,0.823-0.152,1.073-0.481c0.25-0.329,0.364-0.739,0.458-1.141c0.747-3.174,0.567-6.546-0.436-9.644
				c-0.5-1.544-1.201-3.043-2.111-4.388c-0.382-0.565-0.729-1.062-1.451-0.752c-0.753,0.323-1.481,0.972-2.132,1.462
				C689.77,286.538,688.329,287.861,687.031,289.312z"/>
			<path style="fill:none;stroke:#211F20;stroke-width:0.5;stroke-linecap:round;stroke-linejoin:round;stroke-miterlimit:10;" d="
				M527.759,401.768c-0.403-0.646-0.841-1.298-1.473-1.724c-0.631-0.426-1.505-0.579-2.155-0.181
				c-0.628,0.384-0.896,1.188-0.846,1.922c0.051,0.734,0.364,1.421,0.673,2.09c1.786,3.869,3.572,7.738,5.358,11.607
				c0.886,1.92,2.026,4.058,4.081,4.56c-1.911-5.565-5.636-10.49-10.469-13.844c-0.618-0.429-1.406-0.847-2.085-0.523
				c-0.482,0.23-0.742,0.788-0.757,1.322c-0.016,0.534,0.17,1.052,0.374,1.546c1.709,4.149,4.924,7.633,8.86,9.77
				c0.876,0.476,2.139,1.282,3.156,1.328c1.374,0.062,1.076-0.956,0.938-2.021c-0.341-2.626-0.946-5.216-1.801-7.722
				C530.642,407.053,529.349,404.318,527.759,401.768z"/>
		</g>
	</g>
</g>
</svg>
